# This file uses centimeters as units for non-parametric coordinates.

mtllib marker_waves.mtl
g default
v 0.036691 0.001335 -0.015827
v 0.025391 0.001335 -0.029997
v 0.009062 0.001335 -0.037861
v -0.009062 0.001335 -0.037861
v -0.025391 0.001335 -0.029997
v -0.036691 0.001335 -0.015827
v -0.040724 0.001335 0.001842
v -0.036691 0.001335 0.019512
v -0.025391 0.001335 0.033681
v -0.009062 0.001335 0.041545
v 0.009062 0.001335 0.041545
v 0.025391 0.001335 0.033681
v 0.036691 0.001335 0.019512
v 0.040724 0.001335 0.001842
v 0.032089 0.001335 -0.013611
v 0.022206 0.001335 -0.026004
v 0.007925 0.001335 -0.032881
v -0.007925 0.001335 -0.032881
v -0.022206 0.001335 -0.026004
v -0.032089 0.001335 -0.013611
v -0.035616 0.001335 0.001842
v -0.032089 0.001335 0.017295
v -0.022206 0.001335 0.029688
v -0.007925 0.001335 0.036565
v 0.007925 0.001335 0.036565
v 0.022206 0.001335 0.029688
v 0.032089 0.001335 0.017295
v 0.035616 0.001335 0.001842
v 0.024135 0.001335 -0.009781
v 0.016702 0.001335 -0.019101
v 0.005961 0.001335 -0.024274
v -0.005961 0.001335 -0.024274
v -0.016702 0.001335 -0.019101
v -0.024135 0.001335 -0.009781
v -0.026788 0.001335 0.001842
v -0.024135 0.001335 0.013465
v -0.016702 0.001335 0.022785
v -0.005961 0.001335 0.027958
v 0.005961 0.001335 0.027958
v 0.016702 0.001335 0.022785
v 0.024135 0.001335 0.013465
v 0.026788 0.001335 0.001842
v 0.000000 0.001335 0.001842
v 0.047403 0.001335 -0.020986
v 0.032804 0.001335 -0.039293
v 0.011708 0.001335 -0.049452
v -0.011708 0.001335 -0.049452
v -0.032804 0.001335 -0.039293
v -0.047403 0.001335 -0.020986
v -0.052613 0.001335 0.001842
v -0.047403 0.001335 0.024670
v -0.032804 0.001335 0.042977
v -0.011708 0.001335 0.053136
v 0.011708 0.001335 0.053136
v 0.032804 0.001335 0.042977
v 0.047403 0.001335 0.024670
v 0.052613 0.001335 0.001842
v 0.043526 0.001335 -0.019119
v 0.030121 0.001335 -0.035928
v 0.010750 0.001335 -0.045257
v -0.010750 0.001335 -0.045257
v -0.030121 0.001335 -0.035928
v -0.043526 0.001335 -0.019119
v -0.048310 0.001335 0.001842
v -0.043526 0.001335 0.022803
v -0.030121 0.001335 0.039612
v -0.010750 0.001335 0.048941
v 0.010750 0.001335 0.048941
v 0.030121 0.001335 0.039612
v 0.043526 0.001335 0.022803
v 0.048310 0.001335 0.001842
vt 0.640776 0.775956
vt 0.597420 0.721589
vt 0.534769 0.691418
vt 0.465231 0.691418
vt 0.402580 0.721589
vt 0.359224 0.775956
vt 0.343750 0.843750
vt 0.359224 0.911544
vt 0.402580 0.965911
vt 0.465231 0.996082
vt 0.534769 0.996082
vt 0.597420 0.965911
vt 0.640776 0.911544
vt 0.656250 0.843750
vt 0.570388 0.874522
vt 0.548710 0.901706
vt 0.517384 0.916791
vt 0.482616 0.916791
vt 0.451290 0.901706
vt 0.429612 0.874522
vt 0.421875 0.840625
vt 0.429612 0.806728
vt 0.451290 0.779544
vt 0.482616 0.764459
vt 0.517384 0.764459
vt 0.548710 0.779544
vt 0.570388 0.806728
vt 0.578125 0.840625
vt 0.640776 0.911544
vt 0.597420 0.965911
vt 0.500000 0.837500
vt 0.534769 0.996082
vt 0.465231 0.996082
vt 0.402580 0.965911
vt 0.359224 0.911544
vt 0.343750 0.843750
vt 0.359224 0.775956
vt 0.402580 0.721589
vt 0.465231 0.691418
vt 0.534769 0.691418
vt 0.597420 0.721589
vt 0.640776 0.775956
vt 0.656250 0.843750
vt 0.656250 0.843750
vt 0.640776 0.911544
vt 0.570388 0.874522
vt 0.578125 0.840625
vt 0.597420 0.965911
vt 0.548710 0.901706
vt 0.534769 0.996082
vt 0.517384 0.916791
vt 0.465231 0.996082
vt 0.482616 0.916791
vt 0.402580 0.965911
vt 0.451290 0.901706
vt 0.359224 0.911544
vt 0.429612 0.874522
vt 0.343750 0.843750
vt 0.421875 0.840625
vt 0.359224 0.775956
vt 0.429612 0.806728
vt 0.402580 0.721589
vt 0.451290 0.779544
vt 0.465231 0.691418
vt 0.482616 0.764459
vt 0.534769 0.691418
vt 0.517384 0.764459
vt 0.597420 0.721589
vt 0.548710 0.779544
vt 0.640776 0.775956
vt 0.570388 0.806728
vn 0.000000 1.000000 0.000000
vn 0.000000 1.000000 0.000000
vn 0.000000 1.000000 0.000000
vn 0.000000 1.000000 0.000000
vn 0.000000 1.000000 0.000000
vn 0.000000 1.000000 0.000000
vn 0.000000 1.000000 0.000000
vn 0.000000 1.000000 0.000000
vn 0.000000 1.000000 0.000000
vn 0.000000 1.000000 0.000000
vn 0.000000 1.000000 0.000000
vn 0.000000 1.000000 0.000000
vn 0.000000 1.000000 0.000000
vn 0.000000 1.000000 -0.000000
vn 0.000000 1.000000 -0.000000
vn 0.000000 1.000000 -0.000000
vn 0.000000 1.000000 0.000000
vn 0.000000 1.000000 0.000000
vn 0.000000 1.000000 -0.000000
vn 0.000000 1.000000 -0.000000
vn 0.000000 1.000000 -0.000000
vn 0.000000 1.000000 -0.000000
vn 0.000000 1.000000 -0.000000
vn 0.000000 1.000000 -0.000000
vn 0.000000 1.000000 0.000000
vn 0.000000 1.000000 0.000000
vn 0.000000 1.000000 -0.000000
vn 0.000000 1.000000 -0.000000
vn 0.000000 1.000000 0.000000
vn 0.000000 1.000000 0.000000
vn 0.000000 1.000000 0.000000
vn 0.000000 1.000000 0.000000
vn 0.000000 1.000000 -0.000000
vn 0.000000 1.000000 0.000000
vn 0.000000 1.000000 0.000000
vn 0.000000 1.000000 0.000000
vn 0.000000 1.000000 0.000000
vn 0.000000 1.000000 0.000000
vn 0.000000 1.000000 -0.000000
vn 0.000000 1.000000 -0.000000
vn 0.000000 1.000000 -0.000000
vn 0.000000 1.000000 0.000000
vn 0.000000 1.000000 0.000000
vn 0.000000 1.000000 -0.000000
vn 0.000000 1.000000 0.000000
vn 0.000000 1.000000 0.000000
vn 0.000000 1.000000 0.000000
vn 0.000000 1.000000 -0.000000
vn 0.000000 1.000000 -0.000000
vn 0.000000 1.000000 0.000000
vn 0.000000 1.000000 0.000000
vn 0.000000 1.000000 0.000000
vn 0.000000 1.000000 0.000000
vn 0.000000 1.000000 0.000000
vn 0.000000 1.000000 0.000000
vn 0.000000 1.000000 0.000000
vn 0.000000 1.000000 0.000000
vn 0.000000 1.000000 0.000000
vn 0.000000 1.000000 0.000000
vn 0.000000 1.000000 -0.000000
vn 0.000000 1.000000 -0.000000
vn 0.000000 1.000000 0.000000
vn 0.000000 1.000000 0.000000
vn 0.000000 1.000000 -0.000000
vn 0.000000 1.000000 -0.000000
vn 0.000000 1.000000 0.000000
vn 0.000000 1.000000 0.000000
vn 0.000000 1.000000 -0.000000
vn 0.000000 1.000000 -0.000000
vn 0.000000 1.000000 -0.000000
vn 0.000000 1.000000 -0.000000
s 1
g pCylinder4
usemtl lambert5SG
f 14/14/1 1/13/2 28/28/3
f 28/28/3 1/13/2 15/15/4
f 1/13/2 2/12/5 15/15/4
f 15/15/4 2/12/5 16/16/6
f 2/12/5 3/11/7 16/16/6
f 16/16/6 3/11/7 17/17/8
f 3/11/7 4/10/9 17/17/8
f 17/17/8 4/10/9 18/18/10
f 4/10/9 5/9/11 18/18/10
f 18/18/10 5/9/11 19/19/12
f 5/9/11 6/8/13 19/19/12
f 19/19/12 6/8/13 20/20/14
f 6/8/13 7/7/15 20/20/14
f 20/20/14 7/7/15 21/21/16
f 7/7/15 8/6/17 21/21/16
f 21/21/16 8/6/17 22/22/18
f 8/6/17 9/5/19 22/22/18
f 22/22/18 9/5/19 23/23/20
f 9/5/19 10/4/21 23/23/20
f 23/23/20 10/4/21 24/24/22
f 10/4/21 11/3/23 24/24/22
f 24/24/22 11/3/23 25/25/24
f 11/3/23 12/2/25 25/25/24
f 25/25/24 12/2/25 26/26/26
f 12/2/25 13/1/27 26/26/26
f 26/26/26 13/1/27 27/27/28
f 13/1/27 14/14/1 27/27/28
f 27/27/28 14/14/1 28/28/3
s 2
f 29/29/29 30/30/30 43/31/31
f 30/30/30 31/32/32 43/31/31
f 31/32/32 32/33/33 43/31/31
f 32/33/33 33/34/34 43/31/31
f 33/34/34 34/35/35 43/31/31
f 34/35/35 35/36/36 43/31/31
f 35/36/36 36/37/37 43/31/31
f 36/37/37 37/38/38 43/31/31
f 37/38/38 38/39/39 43/31/31
f 38/39/39 39/40/40 43/31/31
f 39/40/40 40/41/41 43/31/31
f 40/41/41 41/42/42 43/31/31
f 41/42/42 42/43/43 43/31/31
f 42/43/43 29/29/29 43/31/31
s 3
f 57/44/44 44/45/45 71/47/46
f 71/47/46 44/45/45 58/46/47
f 44/45/45 45/48/48 58/46/47
f 58/46/47 45/48/48 59/49/49
f 45/48/48 46/50/50 59/49/49
f 59/49/49 46/50/50 60/51/51
f 46/50/50 47/52/52 60/51/51
f 60/51/51 47/52/52 61/53/53
f 47/52/52 48/54/54 61/53/53
f 61/53/53 48/54/54 62/55/55
f 48/54/54 49/56/56 62/55/55
f 62/55/55 49/56/56 63/57/57
f 49/56/56 50/58/58 63/57/57
f 63/57/57 50/58/58 64/59/59
f 50/58/58 51/60/60 64/59/59
f 64/59/59 51/60/60 65/61/61
f 51/60/60 52/62/62 65/61/61
f 65/61/61 52/62/62 66/63/63
f 52/62/62 53/64/64 66/63/63
f 66/63/63 53/64/64 67/65/65
f 53/64/64 54/66/66 67/65/65
f 67/65/65 54/66/66 68/67/67
f 54/66/66 55/68/68 68/67/67
f 68/67/67 55/68/68 69/69/69
f 55/68/68 56/70/70 69/69/69
f 69/69/69 56/70/70 70/71/71
f 56/70/70 57/44/44 70/71/71
f 70/71/71 57/44/44 71/47/46
