# This file uses centimeters as units for non-parametric coordinates.

mtllib planelgf.mtl
g default
v -16.323817 2.691984 12.020650
v 16.990950 2.691984 12.020650
v -16.323817 2.691984 -12.298468
v 16.990950 2.691984 -12.298468
vt 0.998749 0.727947
vt 0.002732 0.727947
vt 0.002731 0.000875
vt 0.998748 0.000874
vn 0.000000 1.000000 0.000000
vn 0.000000 1.000000 0.000000
vn 0.000000 1.000000 0.000000
vn 0.000000 1.000000 0.000000
s off
g pasted__pPlane2 group
usemtl pasted__lambert2SG
f 1/1/1 2/2/2 4/3/3 3/4/4
