# This file uses centimeters as units for non-parametric coordinates.

mtllib source_dot.mtl
g default
v 0.029434 0.003390 -0.014590
v 0.020368 0.003390 -0.025958
v 0.007271 0.003390 -0.032266
v -0.007271 0.003390 -0.032266
v -0.020368 0.003390 -0.025958
v -0.029434 0.003390 -0.014590
v -0.032669 0.003390 -0.000416
v -0.029434 0.003390 0.013757
v -0.020368 0.003390 0.025125
v -0.007271 0.003390 0.031433
v 0.007271 0.003390 0.031433
v 0.020368 0.003390 0.025125
v 0.029434 0.003390 0.013757
v 0.032669 0.003390 -0.000416
v 0.000000 0.003390 -0.000416
v 0.034486 0.003390 -0.017023
v 0.023864 0.003390 -0.030341
v 0.008518 0.003390 -0.037732
v -0.008518 0.003390 -0.037732
v -0.023864 0.003390 -0.030341
v -0.034486 0.003390 -0.017023
v -0.038276 0.003390 -0.000416
v -0.034486 0.003390 0.016190
v -0.023864 0.003390 0.029508
v -0.008518 0.003390 0.036899
v 0.008518 0.003390 0.036899
v 0.023864 0.003390 0.029508
v 0.034486 0.003390 0.016190
v 0.038276 0.003390 -0.000416
v 0.038170 0.003390 -0.018797
v 0.026413 0.003390 -0.033538
v 0.009429 0.003390 -0.041718
v -0.009429 0.003390 -0.041718
v -0.026413 0.003390 -0.033538
v -0.038170 0.003390 -0.018797
v -0.042365 0.003390 -0.000416
v -0.038170 0.003390 0.017964
v -0.026413 0.003390 0.032705
v -0.009429 0.003390 0.040885
v 0.009429 0.003390 0.040885
v 0.026413 0.003390 0.032705
v 0.038170 0.003390 0.017964
v 0.042365 0.003390 -0.000416
v -0.031901 0.003390 0.006639
v -0.037376 0.003390 0.007850
v -0.041369 0.003390 0.008733
v -0.041251 0.003390 -0.010082
v -0.037269 0.003390 -0.009149
v -0.031810 0.003390 -0.007870
v -0.025261 0.003390 -0.021138
v -0.029597 0.003390 -0.024695
v -0.032759 0.003390 -0.027288
v -0.018256 0.003390 -0.038648
v -0.016494 0.003390 -0.034957
v -0.014078 0.003390 -0.029898
v 0.000025 0.003390 -0.033086
v 0.000030 0.003390 -0.038693
v 0.000033 0.003390 -0.042782
v 0.017555 0.003390 -0.038985
v 0.015861 0.003390 -0.035262
v 0.013537 0.003390 -0.030158
v 0.025535 0.003390 -0.020794
v 0.029918 0.003390 -0.024292
v 0.033114 0.003390 -0.026842
v 0.041366 0.003390 -0.009575
v 0.037373 0.003390 -0.008691
v 0.031899 0.003390 -0.007479
v 0.031913 0.003390 0.006584
v 0.037390 0.003390 0.007785
v 0.041385 0.003390 0.008661
v 0.033376 0.003390 0.025682
v 0.030154 0.003390 0.023163
v 0.025737 0.003390 0.019709
v 0.014356 0.003390 0.028931
v 0.016820 0.003390 0.033967
v 0.018617 0.003390 0.037641
v -0.000121 0.003390 0.041949
v -0.000109 0.003390 0.037860
v -0.000093 0.003390 0.032253
v -0.014305 0.003390 0.028956
v -0.016759 0.003390 0.033997
v -0.018550 0.003390 0.037673
v -0.033605 0.003390 0.025395
v -0.030361 0.003390 0.022903
v -0.025914 0.003390 0.019487
vt 0.500000 0.837500
vt 0.619065 0.938769
vt 0.597420 0.965911
vt 0.563121 0.982429
vt 0.500120 0.996082
vt 0.465231 0.996082
vt 0.434360 0.981215
vt 0.382214 0.940373
vt 0.359224 0.911544
vt 0.351683 0.878506
vt 0.351259 0.810851
vt 0.359224 0.775956
vt 0.379172 0.750942
vt 0.433304 0.706793
vt 0.465231 0.691418
vt 0.499566 0.691418
vt 0.566940 0.706911
vt 0.597420 0.721589
vt 0.620005 0.749910
vt 0.648800 0.811108
vt 0.656250 0.843750
vt 0.648734 0.876681
vt 0.000000 0.000000
vt 0.499233 0.000000
vt 0.000000 1.000000
vt 0.499233 1.000000
vt 0.452536 1.000000
vt 0.452536 0.000000
vt 1.000000 1.000000
vt 1.000000 0.000000
vt 0.000000 0.000000
vt 0.501722 0.000000
vt 0.000000 1.000000
vt 0.501722 1.000000
vt 0.507251 1.000000
vt 0.507251 0.000000
vt 1.000000 1.000000
vt 1.000000 0.000000
vt 0.000000 0.000000
vt 0.530261 0.000000
vt 0.000000 1.000000
vt 0.530261 1.000000
vt 0.512673 1.000000
vt 0.512673 0.000000
vt 1.000000 1.000000
vt 1.000000 0.000000
vt 0.000000 0.000000
vt 0.514725 0.000000
vt 0.000000 1.000000
vt 0.514725 1.000000
vt 0.539903 1.000000
vt 0.539903 0.000000
vt 1.000000 1.000000
vt 1.000000 0.000000
vt 0.000000 0.000000
vt 0.509603 0.000000
vt 0.000000 1.000000
vt 0.509603 1.000000
vt 0.506240 1.000000
vt 0.506240 0.000000
vt 1.000000 1.000000
vt 1.000000 0.000000
vt 0.000000 0.000000
vt 0.486501 0.000000
vt 0.000000 1.000000
vt 0.486501 1.000000
vt 0.479083 1.000000
vt 0.479083 0.000000
vt 1.000000 1.000000
vt 1.000000 0.000000
vt 0.000000 0.000000
vt 0.481481 0.000000
vt 0.000000 1.000000
vt 0.481481 1.000000
vt 0.514253 1.000000
vt 0.514253 0.000000
vt 1.000000 1.000000
vt 1.000000 0.000000
vt 0.000000 0.000000
vt 0.499233 0.000000
vt 0.000000 1.000000
vt 0.499233 1.000000
vt 0.452536 1.000000
vt 0.452536 0.000000
vt 1.000000 1.000000
vt 1.000000 0.000000
vt 0.000000 0.000000
vt 0.501722 0.000000
vt 0.000000 1.000000
vt 0.501722 1.000000
vt 0.507251 1.000000
vt 0.507251 0.000000
vt 1.000000 1.000000
vt 1.000000 0.000000
vt 0.000000 0.000000
vt 0.530261 0.000000
vt 0.000000 1.000000
vt 0.530261 1.000000
vt 0.512673 1.000000
vt 0.512673 0.000000
vt 1.000000 1.000000
vt 1.000000 0.000000
vt 0.000000 0.000000
vt 0.514725 0.000000
vt 0.000000 1.000000
vt 0.514725 1.000000
vt 0.539903 1.000000
vt 0.539903 0.000000
vt 1.000000 1.000000
vt 1.000000 0.000000
vt 0.000000 0.000000
vt 0.509603 0.000000
vt 0.000000 1.000000
vt 0.509603 1.000000
vt 0.506240 1.000000
vt 0.506240 0.000000
vt 1.000000 1.000000
vt 1.000000 0.000000
vt 0.000000 0.000000
vt 0.486501 0.000000
vt 0.000000 1.000000
vt 0.486501 1.000000
vt 0.479083 1.000000
vt 0.479083 0.000000
vt 1.000000 1.000000
vt 1.000000 0.000000
vt 0.000000 0.000000
vt 0.481481 0.000000
vt 0.000000 1.000000
vt 0.481481 1.000000
vt 0.514253 1.000000
vt 0.514253 0.000000
vt 1.000000 1.000000
vt 1.000000 0.000000
vt 0.343750 0.843750
vt 1.000000 1.000000
vt 1.000000 0.000000
vt 1.000000 1.000000
vt 1.000000 0.000000
vt 0.000000 0.000000
vt 0.000000 1.000000
vt 0.000000 0.000000
vt 0.000000 1.000000
vt 0.402580 0.965911
vt 1.000000 1.000000
vt 1.000000 0.000000
vt 1.000000 1.000000
vt 1.000000 0.000000
vt 0.000000 0.000000
vt 0.000000 1.000000
vt 0.000000 0.000000
vt 0.000000 1.000000
vt 0.534769 0.996082
vt 1.000000 1.000000
vt 1.000000 0.000000
vt 1.000000 1.000000
vt 1.000000 0.000000
vt 0.000000 0.000000
vt 0.000000 1.000000
vt 0.000000 0.000000
vt 0.000000 1.000000
vt 0.640776 0.911544
vt 1.000000 1.000000
vt 1.000000 0.000000
vt 1.000000 1.000000
vt 1.000000 0.000000
vt 0.000000 0.000000
vt 0.000000 1.000000
vt 0.000000 0.000000
vt 0.000000 1.000000
vt 0.640776 0.775956
vt 1.000000 1.000000
vt 1.000000 0.000000
vt 1.000000 1.000000
vt 1.000000 0.000000
vt 0.000000 0.000000
vt 0.000000 1.000000
vt 0.000000 0.000000
vt 0.000000 1.000000
vt 0.534769 0.691418
vt 1.000000 1.000000
vt 1.000000 0.000000
vt 1.000000 1.000000
vt 1.000000 0.000000
vt 0.000000 0.000000
vt 0.000000 1.000000
vt 0.000000 0.000000
vt 0.000000 1.000000
vt 0.402580 0.721589
vt 1.000000 1.000000
vt 1.000000 0.000000
vt 1.000000 1.000000
vt 1.000000 0.000000
vt 0.000000 0.000000
vt 0.000000 1.000000
vt 0.000000 0.000000
vt 0.000000 1.000000
vn 0.000000 1.000000 0.000000
vn 0.000000 1.000000 0.000000
vn 0.000000 1.000000 0.000000
vn 0.000000 1.000000 0.000000
vn 0.000000 1.000000 0.000000
vn 0.000000 1.000000 0.000000
vn 0.000000 1.000000 0.000000
vn 0.000000 1.000000 0.000000
vn 0.000000 1.000000 0.000000
vn 0.000000 1.000000 0.000000
vn 0.000000 1.000000 0.000000
vn 0.000000 1.000000 0.000000
vn 0.000000 1.000000 0.000000
vn 0.000000 1.000000 0.000000
vn 0.000000 1.000000 0.000000
vn 0.000000 1.000000 0.000000
vn 0.000000 1.000000 0.000000
vn 0.000000 1.000000 0.000000
vn 0.000000 1.000000 0.000000
vn 0.000000 1.000000 0.000000
vn 0.000000 1.000000 0.000000
vn 0.000000 1.000000 0.000000
vn 0.000000 1.000000 0.000000
vn 0.000000 1.000000 0.000000
vn 0.000000 1.000000 0.000000
vn 0.000000 1.000000 0.000000
vn 0.000000 1.000000 0.000000
vn 0.000000 1.000000 0.000000
vn 0.000000 1.000000 0.000000
vn 0.000000 1.000000 0.000000
vn 0.000000 1.000000 0.000000
vn 0.000000 1.000000 0.000000
vn 0.000000 1.000000 0.000000
vn 0.000000 1.000000 0.000000
vn 0.000000 1.000000 0.000000
vn 0.000000 1.000000 0.000000
vn 0.000000 1.000000 0.000000
vn 0.000000 1.000000 0.000000
vn 0.000000 1.000000 0.000000
vn 0.000000 1.000000 0.000000
vn 0.000000 1.000000 0.000000
vn 0.000000 1.000000 0.000000
vn 0.000000 1.000000 0.000000
vn 0.000000 1.000000 0.000000
vn 0.000000 1.000000 0.000000
vn 0.000000 1.000000 0.000000
vn 0.000000 1.000000 0.000000
vn 0.000000 1.000000 0.000000
vn 0.000000 1.000000 0.000000
vn 0.000000 1.000000 0.000000
vn 0.000000 1.000000 0.000000
vn 0.000000 1.000000 0.000000
vn 0.000000 1.000000 0.000000
vn 0.000000 1.000000 0.000000
vn 0.000000 1.000000 0.000000
vn 0.000000 1.000000 0.000000
vn 0.000000 1.000000 0.000000
vn 0.000000 1.000000 0.000000
vn 0.000000 1.000000 0.000000
vn 0.000000 1.000000 0.000000
vn 0.000000 1.000000 0.000000
vn 0.000000 1.000000 0.000000
vn 0.000000 1.000000 0.000000
vn 0.000000 1.000000 0.000000
vn 0.000000 1.000000 0.000000
vn 0.000000 1.000000 0.000000
vn 0.000000 1.000000 0.000000
vn 0.000000 1.000000 0.000000
vn 0.000000 1.000000 0.000000
vn 0.000000 1.000000 0.000000
vn 0.000000 1.000000 0.000000
vn 0.000000 1.000000 0.000000
vn 0.000000 1.000000 0.000000
vn 0.000000 1.000000 0.000000
vn 0.000000 1.000000 0.000000
vn 0.000000 1.000000 0.000000
vn 0.000000 1.000000 0.000000
vn 0.000000 1.000000 0.000000
vn -0.000000 1.000000 -0.000000
vn -0.000000 1.000000 -0.000000
vn -0.000000 1.000000 -0.000000
vn -0.000000 1.000000 -0.000000
vn -0.000000 1.000000 -0.000000
vn 0.000000 1.000000 0.000000
vn 0.000000 1.000000 0.000000
vn 0.000000 1.000000 0.000000
vn 0.000000 1.000000 0.000000
vn 0.000000 1.000000 0.000000
vn 0.000000 1.000000 0.000000
vn 0.000000 1.000000 0.000000
vn 0.000000 1.000000 0.000000
vn 0.000000 1.000000 0.000000
vn 0.000000 1.000000 0.000000
vn 0.000000 1.000000 0.000000
vn 0.000000 1.000000 0.000000
vn 0.000000 1.000000 0.000000
vn 0.000000 1.000000 0.000000
vn 0.000000 1.000000 0.000000
vn 0.000000 1.000000 0.000000
vn 0.000000 1.000000 0.000000
vn 0.000000 1.000000 0.000000
vn 0.000000 1.000000 0.000000
vn 0.000000 1.000000 0.000000
vn 0.000000 1.000000 0.000000
vn 0.000000 1.000000 0.000000
vn 0.000000 1.000000 0.000000
vn 0.000000 1.000000 0.000000
vn 0.000000 1.000000 0.000000
vn 0.000000 1.000000 0.000000
vn 0.000000 1.000000 0.000000
vn 0.000000 1.000000 0.000000
vn 0.000000 1.000000 0.000000
vn 0.000000 1.000000 0.000000
vn 0.000000 1.000000 0.000000
vn 0.000000 1.000000 0.000000
vn 0.000000 1.000000 0.000000
vn 0.000000 1.000000 0.000000
vn 0.000000 1.000000 0.000000
vn 0.000000 1.000000 0.000000
vn 0.000000 1.000000 0.000000
vn 0.000000 1.000000 0.000000
vn 0.000000 1.000000 0.000000
vn 0.000000 1.000000 0.000000
vn 0.000000 1.000000 0.000000
vn 0.000000 1.000000 0.000000
vn 0.000000 1.000000 0.000000
vn 0.000000 1.000000 0.000000
vn 0.000000 1.000000 0.000000
vn 0.000000 1.000000 0.000000
vn 0.000000 1.000000 0.000000
vn 0.000000 1.000000 0.000000
vn 0.000000 1.000000 0.000000
vn 0.000000 1.000000 0.000000
vn 0.000000 1.000000 0.000000
vn 0.000000 1.000000 0.000000
vn 0.000000 1.000000 0.000000
vn 0.000000 1.000000 0.000000
vn 0.000000 1.000000 0.000000
vn 0.000000 1.000000 0.000000
vn 0.000000 1.000000 0.000000
vn 0.000000 1.000000 0.000000
vn 0.000000 1.000000 0.000000
vn 0.000000 1.000000 0.000000
vn 0.000000 1.000000 0.000000
vn 0.000000 1.000000 0.000000
vn 0.000000 1.000000 0.000000
vn 0.000000 1.000000 0.000000
vn 0.000000 1.000000 0.000000
vn 0.000000 1.000000 0.000000
vn 0.000000 1.000000 0.000000
vn 0.000000 1.000000 0.000000
vn 0.000000 1.000000 0.000000
vn 0.000000 1.000000 0.000000
vn 0.000000 1.000000 0.000000
vn 0.000000 1.000000 0.000000
vn 0.000000 1.000000 0.000000
vn 0.000000 1.000000 0.000000
vn 0.000000 1.000000 0.000000
vn 0.000000 1.000000 0.000000
vn 0.000000 1.000000 0.000000
vn 0.000000 1.000000 0.000000
vn 0.000000 1.000000 0.000000
vn 0.000000 1.000000 0.000000
vn 0.000000 1.000000 0.000000
vn 0.000000 1.000000 0.000000
vn 0.000000 1.000000 0.000000
vn 0.000000 1.000000 0.000000
vn 0.000000 1.000000 0.000000
vn 0.000000 1.000000 0.000000
vn 0.000000 1.000000 0.000000
vn 0.000000 1.000000 0.000000
vn 0.000000 1.000000 0.000000
vn 0.000000 1.000000 0.000000
vn 0.000000 1.000000 0.000000
vn 0.000000 1.000000 0.000000
vn 0.000000 1.000000 0.000000
vn 0.000000 1.000000 0.000000
vn 0.000000 1.000000 0.000000
vn 0.000000 1.000000 0.000000
vn 0.000000 1.000000 0.000000
vn 0.000000 1.000000 0.000000
vn 0.000000 1.000000 0.000000
vn 0.000000 1.000000 0.000000
vn 0.000000 1.000000 0.000000
vn 0.000000 1.000000 0.000000
vn 0.000000 1.000000 0.000000
vn 0.000000 1.000000 0.000000
vn 0.000000 1.000000 0.000000
vn 0.000000 1.000000 0.000000
vn 0.000000 1.000000 0.000000
vn 0.000000 1.000000 0.000000
vn 0.000000 1.000000 0.000000
vn 0.000000 1.000000 0.000000
vn 0.000000 1.000000 0.000000
vn 0.000000 1.000000 0.000000
vn 0.000000 1.000000 0.000000
vn 0.000000 1.000000 0.000000
vn 0.000000 1.000000 0.000000
vn 0.000000 1.000000 0.000000
vn 0.000000 1.000000 0.000000
vn 0.000000 1.000000 0.000000
vn 0.000000 1.000000 0.000000
vn 0.000000 1.000000 0.000000
vn 0.000000 1.000000 0.000000
vn 0.000000 1.000000 0.000000
vn 0.000000 1.000000 0.000000
vn 0.000000 1.000000 0.000000
vn 0.000000 1.000000 0.000000
vn 0.000000 1.000000 0.000000
vn 0.000000 1.000000 0.000000
vn 0.000000 1.000000 0.000000
vn 0.000000 1.000000 0.000000
vn 0.000000 1.000000 0.000000
vn 0.000000 1.000000 0.000000
vn -0.000000 1.000000 -0.000000
vn 0.000000 1.000000 0.000000
vn 0.000000 1.000000 0.000000
vn -0.000000 1.000000 -0.000000
vn 0.000000 1.000000 0.000000
vn 0.000000 1.000000 0.000000
vn 0.000000 1.000000 0.000000
vn 0.000000 1.000000 0.000000
vn 0.000000 1.000000 0.000000
vn 0.000000 1.000000 0.000000
vn 0.000000 1.000000 0.000000
vn 0.000000 1.000000 0.000000
vn 0.000000 1.000000 0.000000
vn 0.000000 1.000000 0.000000
vn 0.000000 1.000000 0.000000
vn 0.000000 1.000000 0.000000
vn 0.000000 1.000000 0.000000
vn 0.000000 1.000000 0.000000
vn 0.000000 1.000000 0.000000
vn 0.000000 1.000000 0.000000
vn 0.000000 1.000000 0.000000
vn 0.000000 1.000000 0.000000
vn 0.000000 1.000000 0.000000
vn 0.000000 1.000000 0.000000
vn 0.000000 1.000000 0.000000
vn 0.000000 1.000000 0.000000
vn 0.000000 1.000000 0.000000
vn 0.000000 1.000000 0.000000
vn 0.000000 1.000000 0.000000
vn 0.000000 1.000000 0.000000
vn 0.000000 1.000000 0.000000
vn 0.000000 1.000000 0.000000
vn 0.000000 1.000000 0.000000
vn 0.000000 1.000000 0.000000
vn 0.000000 1.000000 0.000000
vn 0.000000 1.000000 0.000000
vn 0.000000 1.000000 0.000000
vn 0.000000 1.000000 0.000000
vn 0.000000 1.000000 0.000000
vn 0.000000 1.000000 0.000000
vn 0.000000 1.000000 0.000000
vn 0.000000 1.000000 0.000000
vn 0.000000 1.000000 0.000000
vn 0.000000 1.000000 0.000000
vn 0.000000 1.000000 0.000000
vn 0.000000 1.000000 0.000000
vn 0.000000 1.000000 0.000000
vn 0.000000 1.000000 0.000000
vn 0.000000 1.000000 0.000000
vn 0.000000 1.000000 0.000000
vn 0.000000 1.000000 0.000000
vn 0.000000 1.000000 0.000000
vn 0.000000 1.000000 0.000000
vn 0.000000 1.000000 0.000000
vn 0.000000 1.000000 0.000000
vn 0.000000 1.000000 0.000000
vn 0.000000 1.000000 0.000000
vn 0.000000 1.000000 0.000000
vn 0.000000 1.000000 0.000000
vn 0.000000 1.000000 0.000000
vn 0.000000 1.000000 0.000000
vn 0.000000 1.000000 0.000000
vn 0.000000 1.000000 0.000000
vn 0.000000 1.000000 0.000000
vn 0.000000 1.000000 0.000000
vn 0.000000 1.000000 0.000000
vn 0.000000 1.000000 0.000000
vn 0.000000 1.000000 0.000000
vn 0.000000 1.000000 0.000000
vn 0.000000 1.000000 0.000000
vn 0.000000 1.000000 0.000000
vn 0.000000 1.000000 0.000000
vn 0.000000 1.000000 0.000000
vn 0.000000 1.000000 0.000000
vn 0.000000 1.000000 0.000000
vn 0.000000 1.000000 0.000000
vn 0.000000 1.000000 0.000000
vn 0.000000 1.000000 0.000000
vn 0.000000 1.000000 0.000000
vn 0.000000 1.000000 0.000000
vn 0.000000 1.000000 0.000000
vn 0.000000 1.000000 0.000000
vn 0.000000 1.000000 0.000000
vn 0.000000 1.000000 0.000000
vn 0.000000 1.000000 0.000000
vn 0.000000 1.000000 0.000000
vn 0.000000 1.000000 0.000000
vn 0.000000 1.000000 0.000000
vn 0.000000 1.000000 0.000000
vn 0.000000 1.000000 0.000000
vn 0.000000 1.000000 0.000000
vn 0.000000 1.000000 0.000000
vn 0.000000 1.000000 0.000000
vn 0.000000 1.000000 0.000000
vn 0.000000 1.000000 0.000000
vn 0.000000 1.000000 0.000000
vn 0.000000 1.000000 0.000000
vn 0.000000 1.000000 0.000000
vn 0.000000 1.000000 0.000000
vn 0.000000 1.000000 0.000000
vn 0.000000 1.000000 0.000000
vn -0.000000 1.000000 -0.000000
vn 0.000000 1.000000 0.000000
vn -0.000000 1.000000 -0.000000
vn -0.000000 1.000000 -0.000000
vn 0.000000 1.000000 0.000000
vn 0.000000 1.000000 0.000000
vn 0.000000 1.000000 0.000000
vn 0.000000 1.000000 0.000000
vn 0.000000 1.000000 0.000000
vn 0.000000 1.000000 0.000000
vn 0.000000 1.000000 0.000000
vn 0.000000 1.000000 0.000000
vn 0.000000 1.000000 0.000000
vn 0.000000 1.000000 0.000000
vn 0.000000 1.000000 0.000000
vn 0.000000 1.000000 0.000000
vn 0.000000 1.000000 0.000000
vn 0.000000 1.000000 0.000000
vn 0.000000 1.000000 0.000000
vn 0.000000 1.000000 0.000000
vn 0.000000 1.000000 0.000000
vn 0.000000 1.000000 0.000000
vn 0.000000 1.000000 0.000000
vn 0.000000 1.000000 0.000000
vn 0.000000 1.000000 0.000000
vn 0.000000 1.000000 0.000000
vn 0.000000 1.000000 0.000000
vn 0.000000 1.000000 0.000000
vn 0.000000 1.000000 0.000000
vn 0.000000 1.000000 0.000000
vn 0.000000 1.000000 0.000000
vn 0.000000 1.000000 0.000000
vn 0.000000 1.000000 0.000000
vn 0.000000 1.000000 0.000000
vn 0.000000 1.000000 0.000000
vn 0.000000 1.000000 0.000000
vn 0.000000 1.000000 0.000000
vn 0.000000 1.000000 0.000000
vn 0.000000 1.000000 0.000000
vn 0.000000 1.000000 0.000000
vn 0.000000 1.000000 0.000000
vn 0.000000 1.000000 0.000000
vn 0.000000 1.000000 0.000000
vn 0.000000 1.000000 0.000000
vn 0.000000 1.000000 0.000000
vn 0.000000 1.000000 0.000000
vn 0.000000 1.000000 0.000000
vn 0.000000 1.000000 0.000000
vn 0.000000 1.000000 0.000000
vn 0.000000 1.000000 0.000000
vn 0.000000 1.000000 0.000000
vn 0.000000 1.000000 0.000000
vn 0.000000 1.000000 0.000000
vn 0.000000 1.000000 0.000000
vn 0.000000 1.000000 0.000000
vn 0.000000 1.000000 0.000000
vn 0.000000 1.000000 0.000000
vn 0.000000 1.000000 0.000000
vn 0.000000 1.000000 0.000000
vn 0.000000 1.000000 0.000000
vn 0.000000 1.000000 0.000000
vn 0.000000 1.000000 0.000000
vn 0.000000 1.000000 0.000000
vn 0.000000 1.000000 0.000000
vn 0.000000 1.000000 0.000000
vn 0.000000 1.000000 0.000000
vn 0.000000 1.000000 0.000000
vn 0.000000 1.000000 0.000000
vn 0.000000 1.000000 0.000000
vn 0.000000 1.000000 0.000000
vn 0.000000 1.000000 0.000000
vn 0.000000 1.000000 0.000000
vn 0.000000 1.000000 0.000000
vn 0.000000 1.000000 0.000000
vn 0.000000 1.000000 0.000000
vn 0.000000 1.000000 0.000000
vn 0.000000 1.000000 0.000000
vn 0.000000 1.000000 0.000000
vn 0.000000 1.000000 0.000000
vn 0.000000 1.000000 0.000000
vn -0.000000 1.000000 -0.000000
vn -0.000000 1.000000 -0.000000
vn 0.000000 1.000000 0.000000
vn -0.000000 1.000000 -0.000000
vn 0.000000 1.000000 0.000000
vn 0.000000 1.000000 0.000000
vn 0.000000 1.000000 0.000000
vn 0.000000 1.000000 0.000000
vn 0.000000 1.000000 0.000000
vn 0.000000 1.000000 0.000000
vn 0.000000 1.000000 0.000000
vn 0.000000 1.000000 0.000000
vn 0.000000 1.000000 0.000000
vn 0.000000 1.000000 0.000000
vn 0.000000 1.000000 0.000000
vn 0.000000 1.000000 0.000000
vn 0.000000 1.000000 0.000000
vn 0.000000 1.000000 0.000000
vn 0.000000 1.000000 0.000000
vn 0.000000 1.000000 0.000000
vn 0.000000 1.000000 0.000000
vn 0.000000 1.000000 0.000000
vn 0.000000 1.000000 0.000000
vn 0.000000 1.000000 0.000000
vn 0.000000 1.000000 0.000000
s off
g source_dot:pCylinder6
usemtl source_dot:lambert5SG
f 15/1/1 62/2/2 2/3/3
f 2/3/4 61/4/5 15/1/6
f 15/1/7 56/5/8 4/6/9
f 4/6/10 55/7/11 15/1/12
f 15/1/13 50/8/14 6/9/15
f 6/9/16 49/10/17 15/1/18
f 15/1/19 44/11/20 8/12/21
f 8/12/22 85/13/23 15/1/24
f 15/1/25 80/14/26 10/15/27
f 10/15/28 79/16/29 15/1/30
f 15/1/31 74/17/32 12/18/33
f 12/18/34 73/19/35 15/1/36
f 15/1/37 68/20/38 14/21/39
f 14/21/40 67/22/41 15/1/42
usemtl source_dot:lambert2SG
f 2/23/43 62/24/44 17/25/45
f 17/25/46 62/24/47 63/26/48
f 60/27/49 61/28/50 17/29/51
f 17/29/52 61/28/53 2/30/54
f 4/31/55 56/32/56 19/33/57
f 19/33/58 56/32/59 57/34/60
f 54/35/61 55/36/62 19/37/63
f 19/37/64 55/36/65 4/38/66
f 6/39/67 50/40/68 21/41/69
f 21/41/70 50/40/71 51/42/72
f 48/43/73 49/44/74 21/45/75
f 21/45/76 49/44/77 6/46/78
f 8/47/79 44/48/80 23/49/81
f 23/49/82 44/48/83 45/50/84
f 84/51/85 85/52/86 23/53/87
f 23/53/88 85/52/89 8/54/90
f 10/55/91 80/56/92 25/57/93
f 25/57/94 80/56/95 81/58/96
f 78/59/97 79/60/98 25/61/99
f 25/61/100 79/60/101 10/62/102
f 12/63/103 74/64/104 27/65/105
f 27/65/106 74/64/107 75/66/108
f 72/67/109 73/68/110 27/69/111
f 27/69/112 73/68/113 12/70/114
f 14/71/115 68/72/116 29/73/117
f 29/73/118 68/72/119 69/74/120
f 66/75/121 67/76/122 29/77/123
f 29/77/124 67/76/125 14/78/126
usemtl source_dot:lambert5SG
f 17/79/127 63/80/128 31/81/129
f 31/81/130 63/80/131 64/82/132
f 59/83/133 60/84/134 31/85/135
f 31/85/136 60/84/137 17/86/138
f 19/87/139 57/88/140 33/89/141
f 33/89/142 57/88/143 58/90/144
f 53/91/145 54/92/146 33/93/147
f 33/93/148 54/92/149 19/94/150
f 21/95/151 51/96/152 35/97/153
f 35/97/154 51/96/155 52/98/156
f 47/99/157 48/100/158 35/101/159
f 35/101/160 48/100/161 21/102/162
f 23/103/163 45/104/164 37/105/165
f 37/105/166 45/104/167 46/106/168
f 83/107/169 84/108/170 37/109/171
f 37/109/172 84/108/173 23/110/174
f 25/111/175 81/112/176 39/113/177
f 39/113/178 81/112/179 82/114/180
f 77/115/181 78/116/182 39/117/183
f 39/117/184 78/116/185 25/118/186
f 27/119/187 75/120/188 41/121/189
f 41/121/190 75/120/191 76/122/192
f 71/123/193 72/124/194 41/125/195
f 41/125/196 72/124/197 27/126/198
f 29/127/199 69/128/200 43/129/201
f 43/129/202 69/128/203 70/130/204
f 65/131/205 66/132/206 43/133/207
f 43/133/208 66/132/209 29/134/210
f 7/135/211 44/11/212 15/1/213
usemtl source_dot:lambert2SG
f 45/50/214 44/48/215 22/136/216
f 22/136/217 44/48/218 7/137/219
usemtl source_dot:lambert5SG
f 46/106/220 45/104/221 36/138/222
f 36/138/223 45/104/224 22/139/225
f 22/140/226 48/100/227 36/141/228
f 36/141/229 48/100/230 47/99/231
usemtl source_dot:lambert2SG
f 7/142/232 49/44/233 22/143/234
f 22/143/235 49/44/236 48/43/237
usemtl source_dot:lambert5SG
f 15/1/238 49/10/239 7/135/240
f 5/144/241 50/8/242 15/1/243
usemtl source_dot:lambert2SG
f 51/42/244 50/40/245 20/145/246
f 20/145/247 50/40/248 5/146/249
usemtl source_dot:lambert5SG
f 52/98/250 51/96/251 34/147/252
f 34/147/253 51/96/254 20/148/255
f 20/149/256 54/92/257 34/150/258
f 34/150/259 54/92/260 53/91/261
usemtl source_dot:lambert2SG
f 5/151/262 55/36/263 20/152/264
f 20/152/265 55/36/266 54/35/267
usemtl source_dot:lambert5SG
f 15/1/268 55/7/269 5/144/270
f 3/153/271 56/5/272 15/1/273
usemtl source_dot:lambert2SG
f 57/34/274 56/32/275 18/154/276
f 18/154/277 56/32/278 3/155/279
usemtl source_dot:lambert5SG
f 58/90/280 57/88/281 32/156/282
f 32/156/283 57/88/284 18/157/285
f 18/158/286 60/84/287 32/159/288
f 32/159/289 60/84/290 59/83/291
usemtl source_dot:lambert2SG
f 3/160/292 61/28/293 18/161/294
f 18/161/295 61/28/296 60/27/297
usemtl source_dot:lambert5SG
f 15/1/298 61/4/299 3/153/300
f 1/162/301 62/2/302 15/1/303
usemtl source_dot:lambert2SG
f 63/26/304 62/24/305 16/163/306
f 16/163/307 62/24/308 1/164/309
usemtl source_dot:lambert5SG
f 64/82/310 63/80/311 30/165/312
f 30/165/313 63/80/314 16/166/315
f 16/167/316 66/132/317 30/168/318
f 30/168/319 66/132/320 65/131/321
usemtl source_dot:lambert2SG
f 1/169/322 67/76/323 16/170/324
f 16/170/325 67/76/326 66/75/327
usemtl source_dot:lambert5SG
f 15/1/328 67/22/329 1/162/330
f 13/171/331 68/20/332 15/1/333
usemtl source_dot:lambert2SG
f 69/74/334 68/72/335 28/172/336
f 28/172/337 68/72/338 13/173/339
usemtl source_dot:lambert5SG
f 70/130/340 69/128/341 42/174/342
f 42/174/343 69/128/344 28/175/345
f 28/176/346 72/124/347 42/177/348
f 42/177/349 72/124/350 71/123/351
usemtl source_dot:lambert2SG
f 13/178/352 73/68/353 28/179/354
f 28/179/355 73/68/356 72/67/357
usemtl source_dot:lambert5SG
f 15/1/358 73/19/359 13/171/360
f 11/180/361 74/17/362 15/1/363
usemtl source_dot:lambert2SG
f 75/66/364 74/64/365 26/181/366
f 26/181/367 74/64/368 11/182/369
usemtl source_dot:lambert5SG
f 76/122/370 75/120/371 40/183/372
f 40/183/373 75/120/374 26/184/375
f 26/185/376 78/116/377 40/186/378
f 40/186/379 78/116/380 77/115/381
usemtl source_dot:lambert2SG
f 11/187/382 79/60/383 26/188/384
f 26/188/385 79/60/386 78/59/387
usemtl source_dot:lambert5SG
f 15/1/388 79/16/389 11/180/390
f 9/189/391 80/14/392 15/1/393
usemtl source_dot:lambert2SG
f 81/58/394 80/56/395 24/190/396
f 24/190/397 80/56/398 9/191/399
usemtl source_dot:lambert5SG
f 82/114/400 81/112/401 38/192/402
f 38/192/403 81/112/404 24/193/405
f 24/194/406 84/108/407 38/195/408
f 38/195/409 84/108/410 83/107/411
usemtl source_dot:lambert2SG
f 9/196/412 85/52/413 24/197/414
f 24/197/415 85/52/416 84/51/417
usemtl source_dot:lambert5SG
f 15/1/418 85/13/419 9/189/420
