# This file uses centimeters as units for non-parametric coordinates.

mtllib wave_circle4.mtl
g default
v 0.046782 0.001335 -0.020686
v 0.032374 0.001335 -0.038754
v 0.011554 0.001335 -0.048780
v -0.011554 0.001335 -0.048780
v -0.032374 0.001335 -0.038754
v -0.046782 0.001335 -0.020686
v -0.051924 0.001335 0.001842
v -0.046782 0.001335 0.024372
v -0.032374 0.001335 0.042438
v -0.011554 0.001335 0.052464
v 0.011554 0.001335 0.052464
v 0.032374 0.001335 0.042438
v 0.046782 0.001335 0.024372
v 0.051924 0.001335 0.001842
v 0.043356 0.001335 -0.019037
v 0.030003 0.001335 -0.035781
v 0.010708 0.001335 -0.045073
v -0.010708 0.001335 -0.045073
v -0.030003 0.001335 -0.035781
v -0.043356 0.001335 -0.019037
v -0.048122 0.001335 0.001842
v -0.043356 0.001335 0.022721
v -0.030003 0.001335 0.039465
v -0.010708 0.001335 0.048757
v 0.010708 0.001335 0.048757
v 0.030003 0.001335 0.039465
v 0.043356 0.001335 0.022721
v 0.048122 0.001335 0.001842
v 0.000000 0.001335 -0.046227
v 0.000000 0.001335 -0.050026
v -0.020856 0.001335 -0.041467
v -0.022504 0.001335 -0.044889
v -0.037583 0.001335 -0.028129
v -0.040552 0.001335 -0.030496
v -0.046864 0.001335 -0.008855
v -0.050567 0.001335 -0.009700
v -0.050567 0.001335 0.013384
v -0.046864 0.001335 0.012539
v -0.040552 0.001335 0.034182
v -0.037583 0.001335 0.031813
v 0.000000 0.001335 0.053710
v 0.000000 0.001335 0.049911
v -0.022504 0.001335 0.048573
v -0.020856 0.001335 0.045151
v 0.022504 0.001335 0.048573
v 0.020856 0.001335 0.045151
v 0.040552 0.001335 0.034182
v 0.037583 0.001335 0.031813
v 0.050567 0.001335 0.013384
v 0.046864 0.001335 0.012539
v 0.050567 0.001335 -0.009700
v 0.046864 0.001335 -0.008855
v 0.040552 0.001335 -0.030496
v 0.037583 0.001335 -0.028129
v 0.022504 0.001335 -0.044889
v 0.020856 0.001335 -0.041467
vt 0.656250 0.843750
vt 0.648513 0.877647
vt 0.578125 0.840625
vt 0.574257 0.857574
vt 0.640776 0.911544
vt 0.619098 0.938727
vt 0.570388 0.874522
vt 0.559549 0.888114
vt 0.597420 0.965911
vt 0.566095 0.980996
vt 0.548710 0.901706
vt 0.533047 0.909248
vt 0.500000 0.916791
vt 0.500000 0.996082
vt 0.482616 0.916791
vt 0.465231 0.996082
vt 0.466953 0.909248
vt 0.433905 0.980996
vt 0.451290 0.901706
vt 0.402580 0.965911
vt 0.440451 0.888114
vt 0.380902 0.938727
vt 0.429612 0.874522
vt 0.359224 0.911544
vt 0.425744 0.857574
vt 0.351487 0.877647
vt 0.421875 0.840625
vt 0.343750 0.843750
vt 0.351487 0.809853
vt 0.425744 0.823676
vt 0.359224 0.775956
vt 0.380902 0.748773
vt 0.429612 0.806728
vt 0.440451 0.793136
vt 0.402580 0.721589
vt 0.433905 0.706504
vt 0.451290 0.779544
vt 0.466953 0.772002
vt 0.465231 0.691418
vt 0.500000 0.691418
vt 0.482616 0.764459
vt 0.500000 0.764459
vt 0.534769 0.691418
vt 0.566095 0.706504
vt 0.517384 0.764459
vt 0.533047 0.772002
vt 0.597420 0.721589
vt 0.619098 0.748773
vt 0.548710 0.779544
vt 0.559549 0.793136
vt 0.640776 0.775956
vt 0.648513 0.809853
vt 0.570388 0.806728
vt 0.574257 0.823676
vt 0.534769 0.996082
vt 0.517384 0.916791
vn 0.000000 1.000000 0.000000
vn 0.000000 1.000000 0.000000
vn 0.000000 1.000000 0.000000
vn 0.000000 1.000000 0.000000
vn 0.000000 1.000000 0.000000
vn 0.000000 1.000000 0.000000
vn 0.000000 1.000000 0.000000
vn 0.000000 1.000000 0.000000
vn 0.000000 1.000000 0.000000
vn 0.000000 1.000000 0.000000
vn 0.000000 1.000000 0.000000
vn 0.000000 1.000000 0.000000
vn 0.000000 1.000000 0.000000
vn 0.000000 1.000000 0.000000
vn 0.000000 1.000000 0.000000
vn 0.000000 1.000000 0.000000
vn 0.000000 1.000000 0.000000
vn 0.000000 1.000000 0.000000
vn 0.000000 1.000000 0.000000
vn 0.000000 1.000000 0.000000
vn 0.000000 1.000000 0.000000
vn 0.000000 1.000000 0.000000
vn 0.000000 1.000000 0.000000
vn 0.000000 1.000000 0.000000
vn 0.000000 1.000000 0.000000
vn 0.000000 1.000000 0.000000
vn 0.000000 1.000000 0.000000
vn 0.000000 1.000000 0.000000
vn 0.000000 1.000000 0.000000
vn 0.000000 1.000000 0.000000
vn 0.000000 1.000000 0.000000
vn 0.000000 1.000000 0.000000
vn 0.000000 1.000000 0.000000
vn 0.000000 1.000000 0.000000
vn 0.000000 1.000000 0.000000
vn 0.000000 1.000000 0.000000
vn 0.000000 1.000000 0.000000
vn 0.000000 1.000000 0.000000
vn 0.000000 1.000000 0.000000
vn 0.000000 1.000000 0.000000
vn 0.000000 1.000000 0.000000
vn 0.000000 1.000000 0.000000
vn 0.000000 1.000000 0.000000
vn 0.000000 1.000000 0.000000
vn 0.000000 1.000000 0.000000
vn 0.000000 1.000000 0.000000
vn 0.000000 1.000000 0.000000
vn 0.000000 1.000000 0.000000
vn 0.000000 1.000000 0.000000
vn 0.000000 1.000000 0.000000
vn 0.000000 1.000000 0.000000
vn 0.000000 1.000000 0.000000
vn 0.000000 1.000000 0.000000
vn 0.000000 1.000000 0.000000
vn 0.000000 1.000000 0.000000
vn 0.000000 1.000000 0.000000
vn 0.000000 1.000000 0.000000
vn 0.000000 1.000000 0.000000
vn 0.000000 1.000000 0.000000
vn 0.000000 1.000000 0.000000
vn 0.000000 1.000000 0.000000
vn 0.000000 1.000000 0.000000
vn 0.000000 1.000000 0.000000
vn 0.000000 1.000000 0.000000
vn 0.000000 1.000000 0.000000
vn 0.000000 1.000000 0.000000
vn 0.000000 1.000000 0.000000
vn 0.000000 1.000000 0.000000
vn 0.000000 1.000000 0.000000
vn 0.000000 1.000000 0.000000
vn 0.000000 1.000000 0.000000
vn 0.000000 1.000000 0.000000
vn 0.000000 1.000000 0.000000
vn 0.000000 1.000000 0.000000
vn 0.000000 1.000000 0.000000
vn 0.000000 1.000000 0.000000
vn 0.000000 1.000000 0.000000
vn 0.000000 1.000000 0.000000
vn 0.000000 1.000000 0.000000
vn 0.000000 1.000000 0.000000
vn 0.000000 1.000000 0.000000
vn 0.000000 1.000000 0.000000
vn 0.000000 1.000000 0.000000
vn 0.000000 1.000000 0.000000
vn 0.000000 1.000000 0.000000
vn 0.000000 1.000000 0.000000
vn 0.000000 1.000000 0.000000
vn 0.000000 1.000000 0.000000
vn 0.000000 1.000000 0.000000
vn 0.000000 1.000000 0.000000
vn 0.000000 1.000000 0.000000
vn 0.000000 1.000000 0.000000
vn 0.000000 1.000000 0.000000
vn 0.000000 1.000000 0.000000
vn 0.000000 1.000000 0.000000
vn 0.000000 1.000000 0.000000
vn 0.000000 1.000000 0.000000
vn 0.000000 1.000000 0.000000
vn 0.000000 1.000000 0.000000
vn 0.000000 1.000000 0.000000
vn 0.000000 1.000000 0.000000
vn 0.000000 1.000000 0.000000
vn 0.000000 1.000000 0.000000
vn 0.000000 1.000000 0.000000
vn 0.000000 1.000000 0.000000
vn 0.000000 1.000000 0.000000
vn 0.000000 1.000000 0.000000
vn 0.000000 1.000000 0.000000
vn 0.000000 1.000000 0.000000
vn 0.000000 1.000000 0.000000
vn 0.000000 1.000000 0.000000
vn 0.000000 1.000000 0.000000
vn 0.000000 1.000000 0.000000
vn 0.000000 1.000000 0.000000
vn 0.000000 1.000000 0.000000
vn 0.000000 1.000000 0.000000
vn 0.000000 1.000000 0.000000
vn 0.000000 1.000000 0.000000
vn 0.000000 1.000000 0.000000
vn 0.000000 1.000000 0.000000
vn 0.000000 1.000000 0.000000
vn 0.000000 1.000000 0.000000
vn 0.000000 1.000000 0.000000
vn 0.000000 1.000000 0.000000
vn 0.000000 1.000000 0.000000
vn 0.000000 1.000000 0.000000
vn 0.000000 1.000000 0.000000
vn 0.000000 1.000000 0.000000
vn 0.000000 1.000000 0.000000
vn 0.000000 1.000000 0.000000
vn 0.000000 1.000000 0.000000
vn 0.000000 1.000000 0.000000
vn 0.000000 1.000000 0.000000
vn 0.000000 1.000000 0.000000
vn 0.000000 1.000000 0.000000
vn 0.000000 1.000000 0.000000
vn 0.000000 1.000000 0.000000
vn 0.000000 1.000000 0.000000
vn 0.000000 1.000000 0.000000
vn 0.000000 1.000000 0.000000
vn 0.000000 1.000000 0.000000
vn 0.000000 1.000000 0.000000
vn 0.000000 1.000000 0.000000
vn 0.000000 1.000000 0.000000
vn 0.000000 1.000000 0.000000
vn 0.000000 1.000000 0.000000
vn 0.000000 1.000000 0.000000
vn 0.000000 1.000000 0.000000
vn 0.000000 1.000000 0.000000
vn 0.000000 1.000000 0.000000
vn 0.000000 1.000000 0.000000
vn 0.000000 1.000000 0.000000
vn 0.000000 1.000000 0.000000
vn 0.000000 1.000000 0.000000
vn 0.000000 1.000000 0.000000
vn 0.000000 1.000000 0.000000
vn 0.000000 1.000000 0.000000
vn 0.000000 1.000000 0.000000
vn 0.000000 1.000000 0.000000
vn 0.000000 1.000000 0.000000
vn 0.000000 1.000000 0.000000
vn 0.000000 1.000000 0.000000
vn 0.000000 1.000000 0.000000
vn 0.000000 1.000000 0.000000
vn 0.000000 1.000000 0.000000
vn 0.000000 1.000000 0.000000
vn 0.000000 1.000000 0.000000
vn 0.000000 1.000000 0.000000
s off
g polySurface4 parking_marker_wave:pCylinder6
usemtl parking_marker_wave:lambert5SG
f 14/1/1 51/2/2 28/3/3
f 28/3/4 51/2/5 52/4/6
f 1/5/7 53/6/8 15/7/9
f 15/7/10 53/6/11 54/8/12
f 2/9/13 55/10/14 16/11/15
f 16/11/16 55/10/17 56/12/18
f 29/13/19 30/14/20 18/15/21
f 18/15/22 30/14/23 4/16/24
f 31/17/25 32/18/26 19/19/27
f 19/19/28 32/18/29 5/20/30
f 33/21/31 34/22/32 20/23/33
f 20/23/34 34/22/35 6/24/36
f 35/25/37 36/26/38 21/27/39
f 21/27/40 36/26/41 7/28/42
f 7/28/43 37/29/44 21/27/45
f 21/27/46 37/29/47 38/30/48
f 8/31/49 39/32/50 22/33/51
f 22/33/52 39/32/53 40/34/54
f 9/35/55 43/36/56 23/37/57
f 23/37/58 43/36/59 44/38/60
f 10/39/61 41/40/62 24/41/63
f 24/41/64 41/40/65 42/42/66
f 11/43/67 45/44/68 25/45/69
f 25/45/70 45/44/71 46/46/72
f 12/47/73 47/48/74 26/49/75
f 26/49/76 47/48/77 48/50/78
f 13/51/79 49/52/80 27/53/81
f 27/53/82 49/52/83 50/54/84
f 3/55/85 30/14/86 17/56/87
f 17/56/88 30/14/89 29/13/90
f 4/16/91 32/18/92 18/15/93
f 18/15/94 32/18/95 31/17/96
f 5/20/97 34/22/98 19/19/99
f 19/19/100 34/22/101 33/21/102
f 6/24/103 36/26/104 20/23/105
f 20/23/106 36/26/107 35/25/108
f 38/30/109 37/29/110 22/33/111
f 22/33/112 37/29/113 8/31/114
f 40/34/115 39/32/116 23/37/117
f 23/37/118 39/32/119 9/35/120
f 42/42/121 41/40/122 25/45/123
f 25/45/124 41/40/125 11/43/126
f 44/38/127 43/36/128 24/41/129
f 24/41/130 43/36/131 10/39/132
f 46/46/133 45/44/134 26/49/135
f 26/49/136 45/44/137 12/47/138
f 48/50/139 47/48/140 27/53/141
f 27/53/142 47/48/143 13/51/144
f 50/54/145 49/52/146 28/3/147
f 28/3/148 49/52/149 14/1/150
f 52/4/151 51/2/152 15/7/153
f 15/7/154 51/2/155 1/5/156
f 54/8/157 53/6/158 16/11/159
f 16/11/160 53/6/161 2/9/162
f 56/12/163 55/10/164 17/56/165
f 17/56/166 55/10/167 3/55/168
