# This file uses centimeters as units for non-parametric coordinates.

mtllib marker_red.mtl
g default
v -0.042000 0.040883 0.042000
v 0.042000 0.040883 0.042000
v -0.042000 0.040883 -0.042000
v 0.042000 0.040883 -0.042000
v 0.000612 0.100158 0.009131
v 0.030575 0.067743 0.009131
v 0.001047 0.018327 0.009131
v 0.019985 0.045238 0.009131
v 0.019933 0.092975 0.009131
v 0.011597 0.097631 0.009131
v 0.026858 0.055143 0.009131
v 0.029799 0.077415 0.009131
v 0.025531 0.086411 0.009131
v 0.000612 0.070387 0.009131
v 0.000612 0.048958 0.009131
v 0.011267 0.052009 0.009131
v 0.021121 0.066057 0.009131
v 0.021440 0.073305 0.009131
v 0.019025 0.080046 0.009131
v 0.015144 0.084965 0.009131
v 0.008896 0.088455 0.009131
v 0.000612 0.090348 0.009131
v 0.017408 0.057676 0.009131
v 0.006262 0.049687 0.009131
v 0.011642 0.033383 0.009131
v -0.028916 0.067743 0.009131
v -0.018327 0.045238 0.009131
v -0.018275 0.092975 0.009131
v -0.009939 0.097631 0.009131
v -0.025199 0.055143 0.009131
v -0.028140 0.077415 0.009131
v -0.023872 0.086411 0.009131
v -0.009609 0.052009 0.009131
v -0.019463 0.066057 0.009131
v -0.019782 0.073305 0.009131
v -0.017367 0.080046 0.009131
v -0.013485 0.084965 0.009131
v -0.007238 0.088455 0.009131
v -0.015749 0.057676 0.009131
v -0.004603 0.049687 0.009131
v -0.009984 0.033383 0.009131
v 0.000612 0.070387 -0.004904
v 0.006262 0.049687 -0.004904
v 0.011267 0.052009 -0.004904
v 0.017408 0.057676 -0.004904
v 0.021121 0.066057 -0.004904
v 0.021440 0.073305 -0.004904
v 0.019025 0.080046 -0.004904
v 0.015144 0.084965 -0.004904
v 0.008896 0.088455 -0.004904
v 0.000612 0.090348 -0.004904
v 0.011642 0.033383 -0.004904
v 0.019985 0.045238 -0.004904
v 0.026858 0.055143 -0.004904
v 0.030575 0.067743 -0.004904
v 0.029799 0.077415 -0.004904
v 0.025531 0.086411 -0.004904
v 0.019933 0.092975 -0.004904
v 0.011597 0.097631 -0.004904
v 0.000612 0.100158 -0.004904
v 0.000612 0.048958 -0.004904
v 0.001047 0.018327 -0.004904
v -0.009609 0.052009 -0.004904
v -0.004603 0.049687 -0.004904
v -0.015749 0.057676 -0.004904
v -0.019463 0.066057 -0.004904
v -0.019782 0.073305 -0.004904
v -0.017367 0.080046 -0.004904
v -0.013485 0.084965 -0.004904
v -0.007238 0.088455 -0.004904
v -0.018327 0.045238 -0.004904
v -0.009984 0.033383 -0.004904
v -0.025199 0.055143 -0.004904
v -0.028916 0.067743 -0.004904
v -0.028140 0.077415 -0.004904
v -0.023872 0.086411 -0.004904
v -0.018275 0.092975 -0.004904
v -0.009939 0.097631 -0.004904
vt 0.375000 0.750000
vt 0.625000 0.750000
vt 0.375000 1.000000
vt 0.625000 1.000000
vt 0.565141 0.536091
vt 0.597732 0.389318
vt 0.546918 0.319494
vt 0.632093 0.436533
vt 0.669572 0.488032
vt 0.659583 0.524942
vt 0.624620 0.571577
vt 0.592332 0.614645
vt 0.556586 0.662325
vt 0.500000 0.737802
vt 0.617336 0.367117
vt 0.565647 0.296091
vt 0.658151 0.423199
vt 0.703586 0.485632
vt 0.691593 0.529945
vt 0.649617 0.585934
vt 0.610852 0.637641
vt 0.567936 0.694885
vt 0.500000 0.785502
vt 0.500000 0.255025
vt 0.500000 0.205887
vt 0.565141 0.536091
vt 0.546918 0.319494
vt 0.597732 0.389318
vt 0.632093 0.436533
vt 0.669572 0.488032
vt 0.659583 0.524942
vt 0.624620 0.571577
vt 0.592332 0.614645
vt 0.556586 0.662325
vt 0.500000 0.737802
vt 0.565647 0.296091
vt 0.617336 0.367117
vt 0.658151 0.423199
vt 0.703586 0.485632
vt 0.691593 0.529945
vt 0.649617 0.585934
vt 0.610852 0.637641
vt 0.567936 0.694885
vt 0.500000 0.785502
vt 0.500000 0.255025
vt 0.500000 0.205887
vt 0.565141 0.536091
vt 0.546918 0.319494
vt 0.597732 0.389318
vt 0.632093 0.436533
vt 0.669572 0.488032
vt 0.659583 0.524942
vt 0.624620 0.571577
vt 0.592332 0.614645
vt 0.556586 0.662325
vt 0.500000 0.737802
vt 0.565647 0.296091
vt 0.617336 0.367117
vt 0.658151 0.423199
vt 0.703586 0.485632
vt 0.691593 0.529945
vt 0.649617 0.585934
vt 0.610852 0.637641
vt 0.567936 0.694885
vt 0.500000 0.785502
vt 0.500000 0.255025
vt 0.500000 0.205887
vt 0.565141 0.536091
vt 0.597732 0.389318
vt 0.546918 0.319494
vt 0.632093 0.436533
vt 0.669572 0.488032
vt 0.659583 0.524942
vt 0.624620 0.571577
vt 0.592332 0.614645
vt 0.556586 0.662325
vt 0.500000 0.737802
vt 0.617336 0.367117
vt 0.565647 0.296091
vt 0.658151 0.423199
vt 0.703586 0.485632
vt 0.691593 0.529945
vt 0.649617 0.585934
vt 0.610852 0.637641
vt 0.567936 0.694885
vt 0.500000 0.785502
vt 0.500000 0.255025
vt 0.500000 0.205887
vt 0.565647 0.296091
vt 0.617336 0.367117
vt 0.658151 0.423199
vt 0.703586 0.485632
vt 0.691593 0.529945
vt 0.649617 0.585934
vt 0.610852 0.637641
vt 0.567936 0.694885
vt 0.500000 0.785502
vt 0.500000 0.205887
vt 0.617336 0.367117
vt 0.565647 0.296091
vt 0.658151 0.423199
vt 0.703586 0.485632
vt 0.691593 0.529945
vt 0.649617 0.585934
vt 0.610852 0.637641
vt 0.567936 0.694885
vt 0.500000 0.785502
vt 0.500000 0.205887
vn 0.000000 -1.000000 0.000000
vn 0.000000 -1.000000 0.000000
vn 0.000000 -1.000000 0.000000
vn 0.000000 -1.000000 0.000000
vn 0.000000 -1.000000 0.000000
vn 0.000000 -1.000000 0.000000
vn 0.000000 0.000000 -1.000000
vn 0.000000 -0.000001 -1.000000
vn 0.000000 0.000000 -1.000000
vn 0.000000 0.000000 -1.000000
vn 0.000000 -0.000001 -1.000000
vn 0.000000 -0.000001 -1.000000
vn 0.000000 0.000000 -1.000000
vn 0.000000 0.000000 -1.000000
vn 0.000000 -0.000001 -1.000000
vn 0.000000 0.000000 -1.000000
vn 0.000000 0.000000 -1.000000
vn 0.000000 0.000000 -1.000000
vn 0.000000 0.000000 -1.000000
vn 0.000000 0.000000 -1.000000
vn 0.000000 0.000000 -1.000000
vn 0.000000 0.000000 -1.000000
vn 0.000000 0.000000 -1.000000
vn 0.000000 0.000000 -1.000000
vn 0.000000 0.000000 -1.000000
vn 0.000000 0.000001 -1.000000
vn 0.000000 0.000000 -1.000000
vn 0.000000 0.000000 -1.000000
vn 0.000000 0.000001 -1.000000
vn 0.000000 0.000001 -1.000000
vn 0.000000 -0.000001 -1.000000
vn 0.000000 -0.000001 -1.000000
vn 0.000000 0.000000 -1.000000
vn 0.000000 0.000000 -1.000000
vn 0.000000 -0.000001 -1.000000
vn 0.000000 0.000000 -1.000000
vn 0.000000 -0.000001 -1.000000
vn 0.000000 -0.000001 -1.000000
vn 0.000000 -0.000001 -1.000000
vn 0.000000 -0.000001 -1.000000
vn 0.000000 -0.000001 -1.000000
vn 0.000000 -0.000001 -1.000000
vn 0.000000 0.000001 -1.000000
vn 0.000000 -0.000001 -1.000000
vn 0.000000 0.000000 -1.000000
vn 0.000000 0.000000 -1.000000
vn 0.000000 -0.000001 -1.000000
vn 0.000000 -0.000001 -1.000000
vn 0.000000 0.000001 -1.000000
vn 0.000000 0.000001 -1.000000
vn 0.000000 0.000000 -1.000000
vn 0.000000 0.000000 -1.000000
vn 0.000000 0.000001 -1.000000
vn 0.000000 0.000000 -1.000000
vn 0.000000 0.000000 -1.000000
vn 0.000000 0.000001 -1.000000
vn 0.000000 0.000000 -1.000000
vn 0.000000 0.000000 -1.000000
vn 0.000000 0.000001 -1.000000
vn 0.000000 0.000000 -1.000000
vn 0.000000 0.000000 -1.000000
vn 0.000000 0.000000 -1.000000
vn 0.000000 0.000000 -1.000000
vn 0.000000 0.000000 -1.000000
vn 0.000000 0.000000 -1.000000
vn 0.000000 0.000000 -1.000000
vn 0.000000 0.000001 -1.000000
vn 0.000000 0.000000 -1.000000
vn 0.000000 0.000001 -1.000000
vn 0.000000 0.000001 -1.000000
vn 0.000000 0.000000 -1.000000
vn 0.000000 0.000000 -1.000000
vn 0.000000 0.000002 -1.000000
vn 0.000000 0.000001 -1.000000
vn 0.000000 0.000001 -1.000000
vn 0.000000 0.000001 -1.000000
vn 0.000000 0.000001 -1.000000
vn 0.000000 0.000001 -1.000000
vn 0.000000 0.000000 -1.000000
vn 0.000000 0.000000 -1.000000
vn 0.000000 0.000000 -1.000000
vn 0.000000 0.000000 -1.000000
vn 0.000000 0.000000 -1.000000
vn 0.000000 0.000000 -1.000000
vn 0.000000 0.000000 -1.000000
vn 0.000000 0.000000 -1.000000
vn 0.000000 0.000000 -1.000000
vn 0.000000 0.000000 -1.000000
vn 0.000000 0.000000 -1.000000
vn 0.000000 0.000000 -1.000000
vn 0.000000 0.000000 -1.000000
vn 0.000000 0.000000 -1.000000
vn 0.000000 0.000000 -1.000000
vn 0.000000 0.000000 -1.000000
vn 0.000000 0.000000 -1.000000
vn 0.000000 0.000000 -1.000000
vn 0.000000 0.000000 -1.000000
vn 0.000000 0.000000 -1.000000
vn 0.000000 -0.000002 -1.000000
vn 0.000000 0.000000 -1.000000
vn 0.000000 -0.000002 -1.000000
vn 0.000000 -0.000003 -1.000000
vn 0.000000 0.000000 -1.000000
vn 0.000000 -0.000003 -1.000000
vn 0.000000 0.000000 -1.000000
vn 0.000000 0.000000 -1.000000
vn 0.000000 0.000000 -1.000000
vn 0.000000 0.000001 -1.000000
vn 0.000000 0.000000 -1.000000
vn 0.000000 0.000001 -1.000000
vn 0.000000 0.000000 -1.000000
vn 0.000000 0.000001 -1.000000
vn 0.000000 0.000000 -1.000000
vn 0.000000 0.000000 -1.000000
vn 0.000000 0.000000 -1.000000
vn 0.000000 0.000000 -1.000000
vn 0.000000 0.000000 -1.000000
vn 0.000000 0.000000 -1.000000
vn 0.000000 0.000000 -1.000000
vn 0.000000 0.000000 -1.000000
vn 0.000000 0.000000 -1.000000
vn 0.000000 0.000000 -1.000000
vn 0.000000 0.000000 -1.000000
vn 0.000000 0.000000 -1.000000
vn 0.000000 0.000000 -1.000000
vn 0.000000 0.000000 -1.000000
vn 0.000000 0.000000 -1.000000
vn 0.000000 0.000000 -1.000000
vn 0.000000 0.000000 -1.000000
vn 0.000000 0.000000 -1.000000
vn 0.000000 0.000000 -1.000000
vn 0.000000 -0.000002 -1.000000
vn 0.000000 -0.000002 -1.000000
vn 0.000000 0.000000 -1.000000
vn 0.000000 -0.000002 -1.000000
vn 0.000000 -0.000002 -1.000000
vn 0.000000 -0.000002 -1.000000
vn 0.000000 -0.000003 -1.000000
vn 0.000000 -0.000003 -1.000000
vn 0.000000 -0.000002 -1.000000
vn 0.000000 -0.000001 -1.000000
vn 0.000000 -0.000003 -1.000000
vn 0.000000 -0.000001 -1.000000
vn 0.000000 0.000000 -1.000000
vn 0.000000 0.000000 -1.000000
vn 0.000000 -0.000001 -1.000000
vn 0.000000 0.000000 -1.000000
vn 0.000000 0.000000 -1.000000
vn 0.000000 0.000000 -1.000000
vn 0.000000 0.000001 -1.000000
vn 0.000000 0.000001 -1.000000
vn 0.000000 0.000000 -1.000000
vn 0.000000 0.000000 -1.000000
vn 0.000000 0.000001 -1.000000
vn 0.000000 0.000000 -1.000000
vn 0.000000 0.000000 -1.000000
vn 0.000000 0.000000 -1.000000
vn 0.000000 0.000000 -1.000000
vn 0.000000 0.000000 -1.000000
vn 0.000000 0.000000 -1.000000
vn 0.000000 0.000000 -1.000000
vn 0.000000 0.000000 -1.000000
vn 0.000000 0.000001 -1.000000
vn 0.000000 0.000001 -1.000000
vn 0.000000 0.000000 -1.000000
vn 0.000000 0.000000 -1.000000
vn 0.000000 0.000001 -1.000000
vn 0.000000 0.000000 -1.000000
vn 0.000000 0.000001 1.000000
vn 0.000000 0.000001 1.000000
vn 0.000000 0.000001 1.000000
vn 0.000000 0.000001 1.000000
vn 0.000000 0.000001 1.000000
vn 0.000000 -0.000001 1.000000
vn 0.000000 0.000001 1.000000
vn 0.000000 -0.000001 1.000000
vn 0.000000 0.000000 1.000000
vn 0.000000 0.000001 1.000000
vn 0.000000 0.000000 1.000000
vn 0.000000 0.000000 1.000000
vn 0.000000 0.000001 1.000000
vn 0.000000 0.000000 1.000000
vn 0.000000 0.000000 1.000000
vn 0.000000 0.000001 1.000000
vn 0.000000 0.000000 1.000000
vn 0.000000 0.000000 1.000000
vn 0.000000 0.000001 1.000000
vn 0.000000 0.000000 1.000000
vn 0.000000 0.000000 1.000000
vn 0.000000 0.000001 1.000000
vn 0.000000 0.000000 1.000000
vn 0.000000 -0.000001 1.000000
vn 0.000000 0.000000 1.000000
vn 0.000000 -0.000001 1.000000
vn 0.000000 0.000001 1.000000
vn 0.000000 0.000001 1.000000
vn 0.000000 -0.000001 1.000000
vn 0.000000 0.000001 1.000000
vn 0.000000 -0.000002 1.000000
vn 0.000000 -0.000001 1.000000
vn 0.000000 -0.000001 1.000000
vn 0.000000 -0.000001 1.000000
vn 0.000000 -0.000001 1.000000
vn 0.000000 0.000001 1.000000
vn 0.000000 -0.000001 1.000000
vn 0.000000 -0.000002 1.000000
vn 0.000000 0.000000 1.000000
vn 0.000000 0.000000 1.000000
vn 0.000000 -0.000002 1.000000
vn 0.000000 0.000000 1.000000
vn 0.000000 0.000000 1.000000
vn 0.000000 0.000000 1.000000
vn 0.000000 0.000000 1.000000
vn 0.000000 0.000000 1.000000
vn 0.000000 0.000000 1.000000
vn 0.000000 0.000000 1.000000
vn 0.000000 0.000000 1.000000
vn 0.000000 0.000000 1.000000
vn 0.000000 0.000000 1.000000
vn 0.000000 0.000000 1.000000
vn 0.000000 0.000000 1.000000
vn 0.000000 0.000000 1.000000
vn 0.000000 0.000000 1.000000
vn 0.000000 0.000000 1.000000
vn 0.000000 0.000000 1.000000
vn 0.000000 0.000000 1.000000
vn 0.000000 0.000000 1.000000
vn 0.000000 0.000000 1.000000
vn 0.000000 0.000000 1.000000
vn 0.000000 0.000000 1.000000
vn 0.000000 0.000000 1.000000
vn 0.000000 0.000000 1.000000
vn 0.000000 0.000000 1.000000
vn 0.000000 0.000000 1.000000
vn 0.000000 0.000000 1.000000
vn 0.000000 0.000000 1.000000
vn 0.000000 -0.000001 1.000000
vn 0.000000 -0.000001 1.000000
vn 0.000000 0.000000 1.000000
vn 0.000000 0.000000 1.000000
vn 0.000000 0.000000 1.000000
vn 0.000000 0.000001 1.000000
vn 0.000000 0.000001 1.000000
vn 0.000000 0.000000 1.000000
vn 0.000000 0.000000 1.000000
vn 0.000000 0.000000 1.000000
vn 0.000000 0.000000 1.000000
vn 0.000000 0.000000 1.000000
vn 0.000000 0.000001 1.000000
vn 0.000000 0.000001 1.000000
vn 0.000000 0.000001 1.000000
vn 0.000000 0.000000 1.000000
vn 0.000000 0.000001 1.000000
vn 0.000000 0.000000 1.000000
vn 0.000000 0.000001 1.000000
vn 0.000000 0.000001 1.000000
vn 0.000000 0.000000 1.000000
vn 0.000000 0.000000 1.000000
vn 0.000000 0.000001 1.000000
vn 0.000000 0.000000 1.000000
vn 0.000000 0.000000 1.000000
vn 0.000000 0.000001 1.000000
vn 0.000000 0.000002 1.000000
vn 0.000000 0.000000 1.000000
vn 0.000000 0.000001 1.000000
vn 0.000000 0.000000 1.000000
vn 0.000000 0.000002 1.000000
vn 0.000000 0.000001 1.000000
vn 0.000000 0.000000 1.000000
vn 0.000000 0.000000 1.000000
vn 0.000000 0.000001 1.000000
vn 0.000000 0.000000 1.000000
vn 0.000000 0.000000 1.000000
vn 0.000000 0.000001 1.000000
vn 0.000000 0.000001 1.000000
vn 0.000000 0.000000 1.000000
vn 0.000000 0.000000 1.000000
vn 0.000000 0.000001 1.000000
vn 0.000000 0.000000 1.000000
vn 0.000000 0.000000 1.000000
vn 0.000000 0.000001 1.000000
vn 0.000000 0.000000 1.000000
vn 0.000000 0.000000 1.000000
vn 0.000000 0.000001 1.000000
vn 0.000000 0.000001 1.000000
vn 0.000000 0.000000 1.000000
vn 0.000000 0.000000 1.000000
vn 0.000000 0.000000 1.000000
vn 0.000000 0.000000 1.000000
vn 0.000000 0.000000 1.000000
vn 0.000000 0.000000 1.000000
vn 0.000000 0.000000 1.000000
vn 0.000000 0.000000 1.000000
vn 0.000000 0.000000 1.000000
vn 0.000000 0.000000 1.000000
vn 0.000000 0.000000 1.000000
vn 0.000000 0.000000 1.000000
vn 0.000000 0.000000 1.000000
vn 0.000000 0.000000 1.000000
vn 0.000000 0.000002 1.000000
vn 0.000000 0.000002 1.000000
vn 0.000000 0.000000 1.000000
vn 0.000000 0.000000 1.000000
vn 0.000000 0.000000 1.000000
vn 0.000000 0.000000 1.000000
vn 0.000000 0.000000 1.000000
vn 0.000000 0.000000 1.000000
vn 0.000000 0.000000 1.000000
vn 0.000000 0.000002 1.000000
vn 0.000000 -0.000001 1.000000
vn 0.000000 0.000000 1.000000
vn 0.000000 0.000000 1.000000
vn 0.000000 0.000000 1.000000
vn 0.000000 0.000000 1.000000
vn 0.000000 0.000000 1.000000
vn 0.000000 -0.000003 1.000000
vn 0.000000 -0.000001 1.000000
vn 0.000000 0.000000 1.000000
vn 0.000000 0.000000 1.000000
vn 0.000000 -0.000001 1.000000
vn 0.000000 0.000000 1.000000
vn 0.000000 -0.000001 1.000000
vn 0.000000 0.000001 1.000000
vn 0.000000 0.000000 1.000000
vn 0.000000 -0.000001 1.000000
vn 0.000000 -0.000001 1.000000
vn 0.000000 0.000000 1.000000
vn 0.000000 0.000000 1.000000
vn 0.000000 -0.000001 1.000000
vn 0.000000 0.000000 1.000000
vn 0.817800 -0.575503 0.000000
vn 0.817800 -0.575503 0.000000
vn 0.819535 -0.573030 0.000000
vn 0.819535 -0.573030 0.000000
vn 0.817800 -0.575503 0.000000
vn 0.819535 -0.573030 0.000000
vn 0.819535 -0.573030 0.000000
vn 0.819535 -0.573030 0.000000
vn 0.904836 -0.425760 0.000000
vn 0.904836 -0.425760 0.000000
vn 0.819535 -0.573030 0.000000
vn 0.904836 -0.425760 0.000000
vn 0.904836 -0.425760 0.000000
vn 0.904836 -0.425760 0.000000
vn 0.991393 -0.130919 0.000000
vn 0.991393 -0.130919 0.000000
vn 0.904836 -0.425760 0.000000
vn 0.991393 -0.130919 0.000000
vn 0.991393 -0.130919 0.000000
vn 0.991393 -0.130919 0.000000
vn 0.965390 0.260812 0.000000
vn 0.965390 0.260812 0.000000
vn 0.991393 -0.130919 0.000000
vn 0.965390 0.260812 0.000000
vn 0.965390 0.260812 0.000000
vn 0.965390 0.260812 0.000000
vn 0.844559 0.535463 0.000000
vn 0.844559 0.535463 0.000000
vn 0.965390 0.260812 0.000000
vn 0.844559 0.535463 0.000000
vn 0.844559 0.535463 0.000000
vn 0.844559 0.535463 0.000000
vn 0.627176 0.778877 0.000000
vn 0.627176 0.778877 0.000000
vn 0.844559 0.535463 0.000000
vn 0.627176 0.778877 0.000000
vn 0.627176 0.778877 0.000000
vn 0.627176 0.778877 0.000000
vn 0.348440 0.937331 0.000000
vn 0.348440 0.937331 0.000000
vn 0.627176 0.778877 0.000000
vn 0.348440 0.937331 0.000000
vn 0.348440 0.937331 0.000000
vn 0.348440 0.937331 0.000000
vn 0.000000 1.000000 0.000000
vn 0.000000 1.000000 0.000000
vn 0.348440 0.937331 0.000000
vn 0.000000 1.000000 0.000000
vn 0.817800 -0.575503 0.000000
vn 0.817800 -0.575503 0.000000
vn 0.817800 -0.575503 0.000000
vn 0.817800 -0.575503 0.000000
vn 0.817800 -0.575503 0.000000
vn 0.817800 -0.575503 0.000000
vn -0.819535 -0.573030 0.000000
vn -0.819535 -0.573030 0.000000
vn -0.811574 -0.584250 0.000000
vn -0.811574 -0.584250 0.000000
vn -0.819535 -0.573030 0.000000
vn -0.811574 -0.584250 0.000000
vn -0.904836 -0.425760 0.000000
vn -0.904836 -0.425760 0.000000
vn -0.819535 -0.573030 0.000000
vn -0.819535 -0.573030 0.000000
vn -0.904836 -0.425760 0.000000
vn -0.819535 -0.573030 0.000000
vn -0.991393 -0.130919 0.000000
vn -0.991393 -0.130919 0.000000
vn -0.904836 -0.425760 0.000000
vn -0.904836 -0.425760 0.000000
vn -0.991393 -0.130919 0.000000
vn -0.904836 -0.425760 0.000000
vn -0.965390 0.260811 0.000000
vn -0.965390 0.260811 0.000000
vn -0.991393 -0.130919 0.000000
vn -0.991393 -0.130919 0.000000
vn -0.965390 0.260811 0.000000
vn -0.991393 -0.130919 0.000000
vn -0.844559 0.535463 0.000000
vn -0.844559 0.535463 0.000000
vn -0.965390 0.260811 0.000000
vn -0.965390 0.260811 0.000000
vn -0.844559 0.535463 0.000000
vn -0.965390 0.260811 0.000000
vn -0.627176 0.778877 0.000000
vn -0.627176 0.778877 0.000000
vn -0.844559 0.535463 0.000000
vn -0.844559 0.535463 0.000000
vn -0.627176 0.778877 0.000000
vn -0.844559 0.535463 0.000000
vn -0.355467 0.934689 0.000000
vn -0.355467 0.934689 0.000000
vn -0.627176 0.778877 0.000000
vn -0.627176 0.778877 0.000000
vn -0.355467 0.934689 0.000000
vn -0.627176 0.778877 0.000000
vn 0.000000 1.000000 0.000000
vn 0.000000 1.000000 0.000000
vn -0.355467 0.934689 0.000000
vn -0.355467 0.934689 0.000000
vn 0.000000 1.000000 0.000000
vn -0.355467 0.934689 0.000000
vn -0.811574 -0.584250 0.000000
vn -0.811574 -0.584250 0.000000
vn -0.806674 -0.590997 0.000000
vn -0.806674 -0.590997 0.000000
vn -0.811574 -0.584250 0.000000
vn -0.806674 -0.590997 0.000000
s off
g pCube2
usemtl lambert4SG
f 3/1/1 4/2/2 1/3/3
f 4/2/4 2/4/5 1/3/6
usemtl lambert2SG
f 42/5/7 44/6/8 43/7/9
f 42/5/10 45/8/11 44/6/12
f 42/5/13 46/9/14 45/8/15
f 42/5/16 47/10/17 46/9/18
f 42/5/19 48/11/20 47/10/21
f 42/5/22 49/12/23 48/11/24
f 42/5/25 50/13/26 49/12/27
f 42/5/28 51/14/29 50/13/30
usemtl lambert3SG
f 44/6/31 53/15/32 43/7/33
f 43/7/34 53/15/35 52/16/36
f 54/17/37 53/15/38 45/8/39
f 45/8/40 53/15/41 44/6/42
f 55/18/43 54/17/44 46/9/45
f 46/9/46 54/17/47 45/8/48
f 56/19/49 55/18/50 47/10/51
f 47/10/52 55/18/53 46/9/54
f 57/20/55 56/19/56 48/11/57
f 48/11/58 56/19/59 47/10/60
f 58/21/61 57/20/62 49/12/63
f 49/12/64 57/20/65 48/11/66
f 59/22/67 58/21/68 50/13/69
f 50/13/70 58/21/71 49/12/72
f 60/23/73 59/22/74 51/14/75
f 51/14/76 59/22/77 50/13/78
usemtl lambert2SG
f 61/24/79 42/5/80 43/7/81
usemtl lambert3SG
f 62/25/82 61/24/83 52/16/84
f 52/16/85 61/24/86 43/7/87
usemtl lambert2SG
f 42/26/88 64/27/89 63/28/90
f 42/26/91 63/28/92 65/29/93
f 42/26/94 65/29/95 66/30/96
f 42/26/97 66/30/98 67/31/99
f 42/26/100 67/31/101 68/32/102
f 42/26/103 68/32/104 69/33/105
f 42/26/106 69/33/107 70/34/108
f 42/26/109 70/34/110 51/35/111
usemtl lambert3SG
f 72/36/112 71/37/113 64/27/114
f 64/27/115 71/37/116 63/28/117
f 73/38/118 65/29/119 71/37/120
f 71/37/121 65/29/122 63/28/123
f 65/29/124 73/38/125 66/30/126
f 66/30/127 73/38/128 74/39/129
f 66/30/130 74/39/131 67/31/132
f 67/31/133 74/39/134 75/40/135
f 67/31/136 75/40/137 68/32/138
f 68/32/139 75/40/140 76/41/141
f 68/32/142 76/41/143 69/33/144
f 69/33/145 76/41/146 77/42/147
f 69/33/148 77/42/149 70/34/150
f 70/34/151 77/42/152 78/43/153
f 70/34/154 78/43/155 51/35/156
f 51/35/157 78/43/158 60/44/159
usemtl lambert2SG
f 61/45/160 64/27/161 42/26/162
usemtl lambert3SG
f 62/46/163 72/36/164 61/45/165
f 61/45/166 72/36/167 64/27/168
usemtl lambert2SG
f 14/47/169 24/48/170 16/49/171
f 14/47/172 16/49/173 23/50/174
f 14/47/175 23/50/176 17/51/177
f 14/47/178 17/51/179 18/52/180
f 14/47/181 18/52/182 19/53/183
f 14/47/184 19/53/185 20/54/186
f 14/47/187 20/54/188 21/55/189
f 14/47/190 21/55/191 22/56/192
usemtl lambert3SG
f 25/57/193 8/58/194 24/48/195
f 24/48/196 8/58/197 16/49/198
f 11/59/199 23/50/200 8/58/201
f 8/58/202 23/50/203 16/49/204
f 23/50/205 11/59/206 17/51/207
f 17/51/208 11/59/209 6/60/210
f 17/51/211 6/60/212 18/52/213
f 18/52/214 6/60/215 12/61/216
f 18/52/217 12/61/218 19/53/219
f 19/53/220 12/61/221 13/62/222
f 19/53/223 13/62/224 20/54/225
f 20/54/226 13/62/227 9/63/228
f 20/54/229 9/63/230 21/55/231
f 21/55/232 9/63/233 10/64/234
f 21/55/235 10/64/236 22/56/237
f 22/56/238 10/64/239 5/65/240
usemtl lambert2SG
f 15/66/241 24/48/242 14/47/243
usemtl lambert3SG
f 7/67/244 25/57/245 15/66/246
f 15/66/247 25/57/248 24/48/249
usemtl lambert2SG
f 14/68/250 33/69/251 40/70/252
f 14/68/253 39/71/254 33/69/255
f 14/68/256 34/72/257 39/71/258
f 14/68/259 35/73/260 34/72/261
f 14/68/262 36/74/263 35/73/264
f 14/68/265 37/75/266 36/74/267
f 14/68/268 38/76/269 37/75/270
f 14/68/271 22/77/272 38/76/273
usemtl lambert3SG
f 33/69/274 27/78/275 40/70/276
f 40/70/277 27/78/278 41/79/279
f 30/80/280 27/78/281 39/71/282
f 39/71/283 27/78/284 33/69/285
f 26/81/286 30/80/287 34/72/288
f 34/72/289 30/80/290 39/71/291
f 31/82/292 26/81/293 35/73/294
f 35/73/295 26/81/296 34/72/297
f 32/83/298 31/82/299 36/74/300
f 36/74/301 31/82/302 35/73/303
f 28/84/304 32/83/305 37/75/306
f 37/75/307 32/83/308 36/74/309
f 29/85/310 28/84/311 38/76/312
f 38/76/313 28/84/314 37/75/315
f 5/86/316 29/85/317 22/77/318
f 22/77/319 29/85/320 38/76/321
usemtl lambert2SG
f 15/87/322 14/68/323 40/70/324
usemtl lambert3SG
f 7/88/325 15/87/326 41/79/327
f 41/79/328 15/87/329 40/70/330
usemtl lambert2SG
f 25/89/331 52/16/332 8/90/333
f 8/90/334 52/16/335 53/15/336
f 8/90/337 53/15/338 11/91/339
f 11/91/340 53/15/341 54/17/342
f 11/91/343 54/17/344 6/92/345
f 6/92/346 54/17/347 55/18/348
f 6/92/349 55/18/350 12/93/351
f 12/93/352 55/18/353 56/19/354
f 12/93/355 56/19/356 13/94/357
f 13/94/358 56/19/359 57/20/360
f 13/94/361 57/20/362 9/95/363
f 9/95/364 57/20/365 58/21/366
f 9/95/367 58/21/368 10/96/369
f 10/96/370 58/21/371 59/22/372
f 10/96/373 59/22/374 5/97/375
f 5/97/376 59/22/377 60/23/378
f 7/98/379 62/25/380 25/89/381
f 25/89/382 62/25/383 52/16/384
f 27/99/385 71/37/386 41/100/387
f 41/100/388 71/37/389 72/36/390
f 30/101/391 73/38/392 27/99/393
f 27/99/394 73/38/395 71/37/396
f 26/102/397 74/39/398 30/101/399
f 30/101/400 74/39/401 73/38/402
f 31/103/403 75/40/404 26/102/405
f 26/102/406 75/40/407 74/39/408
f 32/104/409 76/41/410 31/103/411
f 31/103/412 76/41/413 75/40/414
f 28/105/415 77/42/416 32/104/417
f 32/104/418 77/42/419 76/41/420
f 29/106/421 78/43/422 28/105/423
f 28/105/424 78/43/425 77/42/426
f 5/107/427 60/44/428 29/106/429
f 29/106/430 60/44/431 78/43/432
f 41/100/433 72/36/434 7/108/435
f 7/108/436 72/36/437 62/46/438
