# This file uses centimeters as units for non-parametric coordinates.

mtllib move_marker_dot_green.mtl
g default
v 0.177091 0.009425 -0.092945
v 0.113613 0.009425 -0.164597
v 0.024107 0.009425 -0.198542
v -0.070921 0.009425 -0.187003
v -0.149702 0.009425 -0.132625
v -0.194188 0.009425 -0.047863
v -0.194188 0.009425 0.047863
v -0.149702 0.009425 0.132625
v -0.070921 0.009425 0.187003
v 0.024107 0.009425 0.198542
v 0.113613 0.009425 0.164597
v 0.177091 0.009425 0.092945
v 0.200000 0.009425 0.000000
v 0.147575 0.009425 -0.078358
v 0.094059 0.009425 -0.138765
v 0.018601 0.009425 -0.167382
v -0.061514 0.009425 -0.157654
v -0.127931 0.009425 -0.111810
v -0.165435 0.009425 -0.040351
v -0.165435 0.009425 0.040351
v -0.127931 0.009425 0.111810
v -0.061514 0.009425 0.157654
v 0.018601 0.009425 0.167382
v 0.094059 0.009425 0.138765
v 0.147575 0.009425 0.078358
v 0.166888 0.009425 0.000000
v -0.001723 0.009425 -0.000000
vt 0.638353 0.771137
vt 0.588760 0.715159
vt 0.518834 0.688639
vt 0.444593 0.697654
vt 0.383045 0.740137
vt 0.348290 0.806357
vt 0.348290 0.881143
vt 0.383045 0.947363
vt 0.444593 0.989846
vt 0.518834 0.998861
vt 0.588760 0.972341
vt 0.638353 0.916363
vt 0.656250 0.843750
vt 0.569176 0.876931
vt 0.544380 0.904921
vt 0.509417 0.918180
vt 0.472296 0.913673
vt 0.441523 0.892431
vt 0.424145 0.859321
vt 0.424145 0.821928
vt 0.441523 0.788818
vt 0.472297 0.767577
vt 0.509417 0.763070
vt 0.544380 0.776329
vt 0.569176 0.804319
vt 0.578125 0.840625
vt 0.000000 0.000000
vt 1.000000 0.000000
vt 0.500000 1.000000
vt 0.000000 0.000000
vt 1.000000 0.000000
vt 0.500000 1.000000
vt 0.000000 0.000000
vt 1.000000 0.000000
vt 0.500000 1.000000
vt 0.000000 0.000000
vt 1.000000 0.000000
vt 0.500000 1.000000
vt 0.000000 0.000000
vt 1.000000 0.000000
vt 0.500000 1.000000
vt 0.000000 0.000000
vt 1.000000 0.000000
vt 0.500000 1.000000
vt 0.000000 0.000000
vt 1.000000 0.000000
vt 0.500000 1.000000
vt 0.000000 0.000000
vt 1.000000 0.000000
vt 0.500000 1.000000
vt 0.000000 0.000000
vt 1.000000 0.000000
vt 0.500000 1.000000
vt 0.000000 0.000000
vt 1.000000 0.000000
vt 0.500000 1.000000
vt 0.000000 0.000000
vt 1.000000 0.000000
vt 0.500000 1.000000
vt 0.000000 0.000000
vt 1.000000 0.000000
vt 0.500000 1.000000
vt 0.000000 0.000000
vt 1.000000 0.000000
vt 0.500000 1.000000
vn 0.000000 1.000000 0.000000
vn 0.000000 1.000000 0.000000
vn 0.000000 1.000000 0.000000
vn 0.000000 1.000000 0.000000
vn 0.000000 1.000000 -0.000000
vn 0.000000 1.000000 -0.000000
vn 0.000000 1.000000 -0.000000
vn 0.000000 1.000000 -0.000000
vn 0.000000 1.000000 0.000000
vn 0.000000 1.000000 0.000000
vn 0.000000 1.000000 0.000000
vn 0.000000 1.000000 0.000000
vn 0.000000 1.000000 0.000000
vn 0.000000 1.000000 0.000000
vn 0.000000 1.000000 0.000000
vn 0.000000 1.000000 0.000000
vn 0.000000 1.000000 -0.000000
vn 0.000000 1.000000 0.000000
vn 0.000000 1.000000 -0.000000
vn 0.000000 1.000000 -0.000000
vn 0.000000 1.000000 -0.000000
vn 0.000000 1.000000 -0.000000
vn 0.000000 1.000000 0.000000
vn 0.000000 1.000000 0.000000
vn 0.000000 1.000000 0.000000
vn 0.000000 1.000000 0.000000
vn 0.000000 1.000000 0.000000
vn 0.000000 1.000000 0.000000
vn 0.000000 1.000000 0.000000
vn 0.000000 1.000000 0.000000
vn 0.000000 1.000000 0.000000
vn 0.000000 1.000000 0.000000
vn 0.000000 1.000000 0.000000
vn 0.000000 1.000000 0.000000
vn 0.000000 1.000000 0.000000
vn 0.000000 1.000000 0.000000
vn 0.000000 1.000000 0.000000
vn 0.000000 1.000000 0.000000
vn 0.000000 1.000000 0.000000
vn 0.000000 1.000000 0.000000
vn 0.000000 1.000000 0.000000
vn 0.000000 1.000000 0.000000
vn 0.000000 1.000000 0.000000
vn 0.000000 1.000000 0.000000
vn 0.000000 1.000000 0.000000
vn 0.000000 1.000000 0.000000
vn 0.000000 1.000000 0.000000
vn 0.000000 1.000000 0.000000
vn 0.000000 1.000000 0.000000
vn 0.000000 1.000000 0.000000
vn 0.000000 1.000000 0.000000
vn 0.000000 1.000000 0.000000
vn 0.000000 1.000000 0.000000
vn 0.000000 1.000000 0.000000
vn 0.000000 1.000000 0.000000
vn 0.000000 1.000000 0.000000
vn 0.000000 1.000000 0.000000
vn 0.000000 1.000000 0.000000
vn 0.000000 1.000000 0.000000
vn 0.000000 1.000000 0.000000
vn 0.000000 1.000000 0.000000
vn 0.000000 1.000000 0.000000
vn 0.000000 1.000000 0.000000
vn 0.000000 1.000000 0.000000
vn 0.000000 1.000000 0.000000
s 1
g pCylinder1
usemtl lambert3SG
f 13/13/1 1/12/2 14/14/3 26/26/4
f 1/12/2 2/11/5 15/15/6 14/14/3
f 2/11/5 3/10/7 16/16/8 15/15/6
f 3/10/7 4/9/9 17/17/10 16/16/8
f 4/9/9 5/8/11 18/18/12 17/17/10
f 5/8/11 6/7/13 19/19/14 18/18/12
f 6/7/13 7/6/15 20/20/16 19/19/14
f 7/6/15 8/5/17 21/21/18 20/20/16
f 8/5/17 9/4/19 22/22/20 21/21/18
f 9/4/19 10/3/21 23/23/22 22/22/20
f 10/3/21 11/2/23 24/24/24 23/23/22
f 11/2/23 12/1/25 25/25/26 24/24/24
f 12/1/25 13/13/1 26/26/4 25/25/26
s off
usemtl lambert2SG
f 26/27/27 14/28/28 27/29/29
f 14/30/30 15/31/31 27/32/32
f 15/33/33 16/34/34 27/35/35
f 16/36/36 17/37/37 27/38/38
f 17/39/39 18/40/40 27/41/41
f 18/42/42 19/43/43 27/44/44
f 19/45/45 20/46/46 27/47/47
f 20/48/48 21/49/49 27/50/50
f 21/51/51 22/52/52 27/53/53
f 22/54/54 23/55/55 27/56/56
f 23/57/57 24/58/58 27/59/59
f 24/60/60 25/61/61 27/62/62
f 25/63/63 26/64/64 27/65/65
