# This file uses centimeters as units for non-parametric coordinates.

mtllib pointer3.mtl
g default
v -3.437171 0.690670 0.288906
v -4.022893 0.690670 0.288906
v -3.437171 0.690670 -0.296817
v -4.022893 0.690670 -0.296817
vt 0.001992 0.001992
vt 0.001992 0.998008
vt 0.998008 0.001992
vt 0.998008 0.998008
vn 0.000000 1.000000 0.000000
vn 0.000000 1.000000 0.000000
vn 0.000000 1.000000 0.000000
vn 0.000000 1.000000 0.000000
vn 0.000000 1.000000 0.000000
vn 0.000000 1.000000 0.000000
s off
g pasted__polySurface9 pointer01:polySurface9 group
usemtl pasted__lambert4SG
f 1/1/1 3/2/2 2/3/3
f 3/2/4 4/4/5 2/3/6
g default
v -3.850693 0.692172 0.130317
v -3.590059 0.692172 0.130317
v -3.850693 0.952806 0.130317
v -3.590059 0.952806 0.130317
v -3.850693 0.952806 -0.130317
v -3.590059 0.952806 -0.130317
v -3.850693 0.692172 -0.130317
v -3.590059 0.692172 -0.130317
vt 0.375000 0.000000
vt 0.625000 0.000000
vt 0.375000 0.250000
vt 0.625000 0.250000
vt 0.375000 0.500000
vt 0.625000 0.500000
vt 0.375000 0.750000
vt 0.625000 0.750000
vt 0.375000 1.000000
vt 0.625000 1.000000
vt 0.875000 0.000000
vt 0.875000 0.250000
vt 0.125000 0.000000
vt 0.125000 0.250000
vn 0.000000 0.000000 1.000000
vn 0.000000 0.000000 1.000000
vn 0.000000 0.000000 1.000000
vn 0.000000 0.000000 1.000000
vn 0.000000 1.000000 0.000000
vn 0.000000 1.000000 0.000000
vn 0.000000 1.000000 0.000000
vn 0.000000 1.000000 0.000000
vn 0.000000 0.000000 -1.000000
vn 0.000000 0.000000 -1.000000
vn 0.000000 0.000000 -1.000000
vn 0.000000 0.000000 -1.000000
vn 0.000000 -1.000000 0.000000
vn 0.000000 -1.000000 0.000000
vn 0.000000 -1.000000 0.000000
vn 0.000000 -1.000000 0.000000
vn 1.000000 0.000000 0.000000
vn 1.000000 0.000000 0.000000
vn 1.000000 0.000000 0.000000
vn 1.000000 0.000000 0.000000
vn -1.000000 0.000000 0.000000
vn -1.000000 0.000000 0.000000
vn -1.000000 0.000000 0.000000
vn -1.000000 0.000000 0.000000
s off
g pCube1
usemtl lambert2SG
f 5/5/7 6/6/8 8/8/9 7/7/10
f 7/7/11 8/8/12 10/10/13 9/9/14
f 9/9/15 10/10/16 12/12/17 11/11/18
f 11/11/19 12/12/20 6/14/21 5/13/22
f 6/6/23 12/15/24 10/16/25 8/8/26
f 11/17/27 5/5/28 7/7/29 9/18/30
