# This file uses centimeters as units for non-parametric coordinates.

mtllib shadow_patch1.mtl
g default
v -3.669279 0.690670 0.056797
v -3.790785 0.690670 0.056797
v -3.669279 0.690670 -0.064708
v -3.790785 0.690670 -0.064708
vt 0.001992 0.001992
vt 0.001992 0.998008
vt 0.998008 0.001992
vt 0.998008 0.998008
vn 0.000000 1.000000 0.000000
vn 0.000000 1.000000 0.000000
vn 0.000000 1.000000 0.000000
vn 0.000000 1.000000 0.000000
vn 0.000000 1.000000 0.000000
vn 0.000000 1.000000 0.000000
s off
g pasted__pasted__polySurface9 pointer01:polySurface9 pasted__group group
usemtl pasted__pasted__lambert4SG
f 1/1/1 3/2/2 2/3/3
f 3/2/4 4/4/5 2/3/6
