# This file uses centimeters as units for non-parametric coordinates.

mtllib wave_circle1.mtl
g default
v 0.012216 0.001335 -0.004041
v 0.008454 0.001335 -0.008759
v 0.003017 0.001335 -0.011377
v -0.003017 0.001335 -0.011377
v -0.008454 0.001335 -0.008759
v -0.012216 0.001335 -0.004041
v -0.013559 0.001335 0.001842
v -0.012216 0.001335 0.007725
v -0.008454 0.001335 0.012443
v -0.003017 0.001335 0.015061
v 0.003017 0.001335 0.015061
v 0.008454 0.001335 0.012443
v 0.012216 0.001335 0.007725
v 0.013559 0.001335 0.001842
v 0.000000 0.001335 0.001842
v -0.013212 0.001335 0.004611
v -0.013166 0.001335 -0.001132
v -0.010652 0.001335 -0.006449
v -0.005976 0.001335 -0.010261
v -0.000302 0.001335 -0.011656
v 0.005959 0.001335 -0.010270
v 0.010350 0.001335 -0.006829
v 0.013168 0.001335 -0.001127
v 0.013169 0.001335 0.004804
v 0.010514 0.001335 0.010307
v 0.005878 0.001335 0.013993
v 0.000137 0.001335 0.015340
v -0.005972 0.001335 0.013947
v -0.010712 0.001335 0.010057
vt 0.640776 0.911544
vt 0.616804 0.941605
vt 0.500000 0.837500
vt 0.567242 0.980444
vt 0.534769 0.996082
vt 0.496591 0.996082
vt 0.432546 0.980342
vt 0.402580 0.965911
vt 0.379778 0.937319
vt 0.351411 0.877316
vt 0.343750 0.843750
vt 0.350882 0.812503
vt 0.379097 0.751037
vt 0.402580 0.721589
vt 0.432599 0.707133
vt 0.501544 0.691418
vt 0.534769 0.691418
vt 0.566330 0.706617
vt 0.618655 0.748217
vt 0.640776 0.775956
vt 0.648619 0.810318
vt 0.648602 0.877257
vt 0.359224 0.775956
vt 0.359224 0.911544
vt 0.465231 0.996082
vt 0.597420 0.965911
vt 0.656250 0.843750
vt 0.597420 0.721589
vt 0.465231 0.691418
vn 0.000000 1.000000 0.000000
vn 0.000000 1.000000 0.000000
vn 0.000000 1.000000 0.000000
vn 0.000000 1.000000 0.000000
vn 0.000000 1.000000 0.000000
vn 0.000000 1.000000 0.000000
vn 0.000000 1.000000 0.000000
vn 0.000000 1.000000 0.000000
vn 0.000000 1.000000 0.000000
vn 0.000000 1.000000 0.000000
vn 0.000000 1.000000 0.000000
vn 0.000000 1.000000 0.000000
vn 0.000000 1.000000 0.000000
vn 0.000000 1.000000 0.000000
vn 0.000000 1.000000 0.000000
vn 0.000000 1.000000 0.000000
vn 0.000000 1.000000 0.000000
vn 0.000000 1.000000 0.000000
vn 0.000000 1.000000 0.000000
vn 0.000000 1.000000 0.000000
vn 0.000000 1.000000 0.000000
vn 0.000000 1.000000 0.000000
vn 0.000000 1.000000 0.000000
vn 0.000000 1.000000 0.000000
vn 0.000000 1.000000 0.000000
vn 0.000000 1.000000 0.000000
vn 0.000000 1.000000 0.000000
vn 0.000000 1.000000 0.000000
vn 0.000000 1.000000 0.000000
vn 0.000000 1.000000 0.000000
vn 0.000000 1.000000 0.000000
vn 0.000000 1.000000 0.000000
vn 0.000000 1.000000 0.000000
vn 0.000000 1.000000 0.000000
vn -0.000000 1.000000 -0.000000
vn 0.000000 1.000000 0.000000
vn 0.000000 1.000000 0.000000
vn 0.000000 1.000000 0.000000
vn 0.000000 1.000000 0.000000
vn 0.000000 1.000000 0.000000
vn 0.000000 1.000000 0.000000
vn 0.000000 1.000000 0.000000
vn 0.000000 1.000000 0.000000
vn 0.000000 1.000000 0.000000
vn 0.000000 1.000000 0.000000
vn 0.000000 1.000000 0.000000
vn 0.000000 1.000000 0.000000
vn 0.000000 1.000000 0.000000
vn 0.000000 1.000000 0.000000
vn 0.000000 1.000000 0.000000
vn 0.000000 1.000000 0.000000
vn 0.000000 1.000000 0.000000
vn 0.000000 1.000000 0.000000
vn 0.000000 1.000000 0.000000
vn 0.000000 1.000000 0.000000
vn 0.000000 1.000000 0.000000
vn 0.000000 1.000000 0.000000
vn 0.000000 1.000000 0.000000
vn 0.000000 1.000000 0.000000
vn 0.000000 1.000000 0.000000
vn 0.000000 1.000000 0.000000
vn 0.000000 1.000000 0.000000
vn 0.000000 1.000000 0.000000
vn 0.000000 1.000000 0.000000
vn 0.000000 1.000000 0.000000
vn 0.000000 1.000000 0.000000
vn 0.000000 1.000000 0.000000
vn 0.000000 1.000000 0.000000
vn 0.000000 1.000000 0.000000
vn 0.000000 1.000000 0.000000
vn -0.000000 1.000000 -0.000000
vn 0.000000 1.000000 0.000000
vn 0.000000 1.000000 0.000000
vn 0.000000 1.000000 0.000000
vn 0.000000 1.000000 0.000000
vn 0.000000 1.000000 0.000000
vn 0.000000 1.000000 0.000000
vn 0.000000 1.000000 0.000000
vn 0.000000 1.000000 0.000000
vn 0.000000 1.000000 0.000000
vn 0.000000 1.000000 0.000000
vn 0.000000 1.000000 0.000000
vn 0.000000 1.000000 0.000000
vn 0.000000 1.000000 0.000000
s off
g polySurface3 parking_marker_wave:pCylinder6
usemtl parking_marker_wave:lambert5SG
f 1/1/1 22/2/2 15/3/3
f 15/3/4 21/4/5 3/5/6
f 3/5/7 20/6/8 15/3/9
f 15/3/10 19/7/11 5/8/12
f 5/8/13 18/9/14 15/3/15
f 15/3/16 17/10/17 7/11/18
f 7/11/19 16/12/20 15/3/21
f 15/3/22 29/13/23 9/14/24
f 9/14/25 28/15/26 15/3/27
f 15/3/28 27/16/29 11/17/30
f 11/17/31 26/18/32 15/3/33
f 15/3/34 25/19/35 13/20/36
f 13/20/37 24/21/38 15/3/39
f 15/3/40 23/22/41 1/1/42
f 15/3/43 16/12/44 8/23/45
f 6/24/46 17/10/47 15/3/48
f 15/3/49 18/9/50 6/24/51
f 4/25/52 19/7/53 15/3/54
f 15/3/55 20/6/56 4/25/57
f 2/26/58 21/4/59 15/3/60
f 15/3/61 22/2/62 2/26/63
f 14/27/64 23/22/65 15/3/66
f 15/3/67 24/21/68 14/27/69
f 12/28/70 25/19/71 15/3/72
f 15/3/73 26/18/74 12/28/75
f 10/29/76 27/16/77 15/3/78
f 15/3/79 28/15/80 10/29/81
f 8/23/82 29/13/83 15/3/84
